<?xml version="1.0" encoding="UTF-8" standalone="no"?>
<svg
   xmlns:svg="http://www.w3.org/2000/svg"
   xmlns="http://www.w3.org/2000/svg"
   version="1.1"
   id="hypnotoad">
  <defs
     id="defs4021">
    <filter
       height="2"
       width="2"
       y="-0.5"
       x="-0.5"
       id="glow">
      <feGaussianBlur
         result="blur"
         stdDeviation="6" />
      <feComposite
         in="SourceGraphic"
         in2="blur"
         result="composite" />
      <feBlend
         mode="normal"
         in2="composite"
         in="blur" />
    </filter>
    <filter
       id="blur">
      <feGaussianBlur
         result="blur2"
         stdDeviation="2" />
      <feBlend
         mode="normal"
         in="SourceGraphic"
         in2="blur2" />
    </filter>
  </defs>
  <g
     id="layer1"
     style="display:inline">
    <path
       d="m 214.9,64.71 c 6.39,-1 13.86,-1.12 18.98,3.46 7.37,5.14 9.62,14.87 8.04,23.34 -3.22,7.63 -10.47,13.65 -18.85,14.4 -8.01,1.47 -16.37,-2.62 -20.46,-9.58 -3.06,-5.19 -3.38447,-11.35 -1.95447,-17.03 1.0089,-7.095314 7.90137,-13.409254 14.24447,-14.59 z"
       id="path3765"
       style="fill:#c6b402" />
    <path
       d="m 153.24,70.57 c 9.97,4.8 13.77,18.04 9.44,27.88 -3.19,0.49 -6.31,1.32 -9.27,2.61 -5.35,2.04 -9.72,5.83 -14.32,9.11 -1.01,0.86 -2.39,1.23 -3.66,0.74 -7.55,-2.4 -12.93,-9.5 -14.07,-17.22 -1.4259,-7.769117 0.1356,-13.042175 4.84,-17.84 5.63112,-5.69947 14.64031,-10.355658 27.04,-5.28 z"
       id="path3771"
       style="fill:#c6b402" />
    <path
       style="fill:#a66701"
       d="m 298.27667,168.49266 c 6.05,3.59 12.50233,6.95667 17.94233,11.49667 5.27,4.39 11.09767,8.27233 15.25767,13.82233 4.1,4.11 6.73767,9.48 11.13767,13.3 0.18,1.07 0.267,2.61668 0.497,3.69668 10.24828,6.60548 4.84162,35.3846 -2.5,40.95166 -3.03,4.59 -7.64134,8.92034 -12.33134,11.73034 -1.7,-2.77 -3.49633,-4.69566 -5.62633,-7.12566 -1.43,-2.12 -2.95367,-6.10468 -5.58367,-6.95468 -1.54,-0.16 -2.95,0.61 -4.39,1.02 -0.69392,2.8694 -5.13266,16.98914 -7.04,20.22 -7.25,8.94 -18.85,14.29 -30.21,15.1 -2.68,2.98 -4.98,6.47 -8.77,8.11 -2.06,0.92 -4.19,-0.05 -6.29,-0.3 -1.08,0.7 -5.73736,3.66603 -7.66112,5.41986 -1.44709,1.9445 -10.28101,14.1493 -11.42641,14.97529 -2.62251,1.89117 -5.60714,2.58376 -6.21029,0.66934 -0.57704,-3.33179 1.59752,-4.45947 2.6958,-5.44455 5.2533,-4.71183 16.39493,-12.26285 14.57202,-15.02025 -2.88784,-3.64686 -28.36071,9.38808 -34.97808,12.5736 -3.24458,1.27632 -11.13805,4.68561 -12.76096,1.84472 -0.77733,-1.74384 3.36589,-5.19387 8.83078,-8.48105 21.33172,-12.5955 34.293,-11.16227 32.95175,-14.70743 -0.79911,-1.41091 -4.94295,-0.99183 -11.61582,-0.59517 -5.59108,0.013 -9.5733,0.15213 -9.21584,-3.25984 0.23048,-2.14599 6.67416,-3.1905 10.38416,-3.1105 6.29,0.69 13.91624,1.97156 20.25624,1.95156 9.29501,-1.44302 14.22714,-10.93338 15.88036,-16.44355 -2.16936,-3.31401 -5.25895,-7.0427 -5.23472,-10.51553 -4.80138,-4.77117 -1.46645,-10.85022 1.34213,-12.88681 1.86886,-10.67592 -4.48359,-18.68591 -9.01426,-26.74929 14.91681,-16.87065 21.79585,-39.24789 31.40058,-48.72007 2.38839,0.68876 5.66271,2.19256 7.71035,3.43233 z"
       id="path3843" />
    <path
       style="fill:#a66701"
       d="m 149.24447,103.66322 c 36.57386,-18.04759 69.02149,8.21065 83.79553,10.82678 4.58,3.2 8.45,7.36 11.56,11.98 4.25986,7.19907 13.65579,21.2247 15.68334,31.83 -0.71333,4.88532 1.13534,12.54533 0.71534,18.80533 0.37,6.19 0.0457,13.16268 -0.56434,19.32268 -2.21,4.19 -5.41968,7.97166 -8.77968,11.34166 -2.65,-2 -5.71466,-3.64967 -8.89466,-4.44967 -8.58799,-2.22645 -11.2655,-9.0682 -5.89458,-14.60223 3.13445,-2.25475 4.10751,-5.07805 3.762,-6.09061 -8.2751,-18.16481 -38.85155,-21.74523 -51.56357,-21.95982 -12.71203,-0.21459 -53.34042,4.36301 -84.63049,4.15334 -0.47,-0.05 -5.550417,-1.76068 -6.010417,-1.81068 -1.78,-4.84 4.154827,-6.78929 7.324827,-8.50929 15.57748,-10.43509 17.92156,-35.34968 43.4967,-50.83749 z"
       id="path3813" />
    <path
       style="fill:#472e02"
       d="m 203.5961,71.953544 c -4.30656,8.206779 -5.33683,15.492195 -1.84411,23.804451 8.53242,14.090925 17.12132,20.033605 28.76468,16.960005 0.58,0.65 0.98304,1.70712 1.52304,2.38712 -7.38,4.47 -17.78971,4.09488 -24.46971,-1.42512 -4.66,-3.66 -10.5,-6.07 -16.52,-5.13 -6.36,0.97 -14.03,2.23 -17.4,8.46 -3.29,4.62 2.65,8.78 2.25,13.55 -7.42,1.75 -14.37,4.93 -21.41,7.77 -5.37,2.26 -9.28,6.75 -14.38,9.42 -3.02,-2.32 -2.59,-6.43 -3.65,-9.71 -0.92,-5.18 -6.33965,-7.97965 -8.99965,-12.13965 1.32,-1.91 2.45,-3.76776 3.96,-5.54776 2.16,-1.15 3.71742,-3.95635 4.83742,-6.08635 0.35,-0.3 0.79035,-0.89 1.14035,-1.19 -0.95371,-1.10181 -1.20997,-0.98405 -1.96812,-2.16624 1.27,0.49 2.65,0.12 3.66,-0.74 4.6,-3.28 11.66646,-9.96869 23.55536,-11.671633 2.52294,-5.265047 2.78953,-14.139132 -1.9104,-21.32376 11.13516,0.933645 15.61191,12.247059 16.97657,16.807165 2.81,-0.08 3.71989,-0.11376 6.45989,-0.05564 0.29787,-5.160293 8.56925,-19.157075 19.42468,-21.972588 z"
       id="path3781" />
    <path
       d="m 254.50434,111.01317 c -4.551,12.11778 -14.91303,-0.37113 -21.46434,3.47683 l -1.32,0.8 c -0.54,-0.68 -1.1,-1.35 -1.68,-2 -4.1,1.06 -8.81,3.03 -12.8,0.63 -4.89,-3.02 -9.87,-6.31 -12.79,-11.44 -0.93,-1.82 -3.48,-4.05 -1.84,-6.15 4.09,6.96 12.45,11.05 20.46,9.58 8.38,-0.75 15.63,-6.77 18.85,-14.4 3.29453,4.980971 5.49226,12.13333 8.62,14.89"
       id="path3805"
       style="fill:#392603" />
    <path
       style="fill:#8a5502"
       d="m 233.04,114.49 c 2.2,-1.29 4.39,-2.81 6.95,-3.25 2.87,0.21 4.72,2.83 7.1,4.16 3.16,0.86 5.286,-2.43533 7.319,-4.62517 2.49,2.64 3.92901,5.9855 4.30901,9.5155 0.52,5.17 1.33766,10.13166 3.00766,15.08166 1.83,5.45 6.39,10.69568 7.39667,16.61568 1.52201,8.987 0.66433,18.65766 -1.58133,27.796 -1.50167,5.55 -4.44801,11.84501 -7.48801,16.83501 -0.82,-6.16 -0.162,-13.32335 -0.103,-19.60868 0.42,-6.26 -1.81,-12.49 -0.62,-18.71 1.11963,-15.52417 -9.35555,-19.97212 -13.77666,-29.82798 C 242.44334,123.85202 237.62,117.69 233.04,114.49 Z"
       id="path3815" />
    <path
       style="fill:#472e02"
       d="m 243.12,127.83 c 3.37698,-0.70368 9.85,7.2 13.25,12.05 3.67,5.24 7.1,12.46 2.96,18.42 -2.11,0.03 -4.34,-0.2 -5.88,-1.82 -5.47,-5.12 -8.47,-12.22 -10.64,-19.25 -0.55771,-1.98502 -1.93804,-8.89893 0.31,-9.4 z"
       id="path3823" />
    <path
       style="fill:#896668"
       d="m 264.38,140.51 1.45,0.11166 c 2.89034,2.588 4.81134,6.58834 5.60134,10.35834 2.45,16.17 -0.29867,33.31067 -8.43867,47.49067 -3.98,6.48 -9.52367,12.62667 -15.33367,17.49667 -3.15751,2.46401 -5.19051,2.01216 -6.98051,2.41216 6.11,-5.17866 14.35151,-11.6795 18.50151,-18.9895 9.56,-14.9 13.44,-33.6 9.14,-50.91 -0.93,-2.83 -2.71,-5.27 -3.94,-7.97 z"
       id="path3825" />
    <path
       style="fill:#643e4d"
       d="m 265.83,140.86 c 4.44,0.53 8.02,3.79 9.46,7.95 3.46,11.05 2.37,22.96 -0.59,33.99 -0.95142,4.04948 -4.53033,12.80067 -7.61033,18.86067 -2.61,5.08 -5.89122,9.33182 -10.07533,13.657 -1.54051,1.59149 -3.44081,3.144 -4.6151,4.25015 -7.79357,-1.8297 -10.66016,-0.78391 -11.49889,-1.26904 2.81748,-0.60936 4.67993,-1.81157 6.32965,-2.99878 5.81,-4.87 11.02,-10.54 15,-17.02 8.14,-14.18 11.27,-31.13 8.82,-47.3 -0.79,-3.77 -3.14,-6.96 -5.22,-10.12 z"
       id="path3827" />
    <path
       style="fill:#392603"
       d="m 346.79,198.56 c 1.37,4.33 1.6,8.34 3.63,12.43 1.97,1.77 4.45,3.05 5.44,5.71 22.33993,10.32598 19.25655,-1.95929 22.11,-11.59 7.37728,1.11441 29.34512,9.89549 28.31,12.62 -3.51457,2.92137 -23.78505,18.86392 -28.43,23.07 -4.87,4.22 -8.84,9.81 -14.43,13.24 -4.25,3.56 -10.8,3.14 -14.42,7.58 -2.07,2.25 -4.56,3.83 -6.31,6.36 -0.95,2.8 -0.01,6.29 -0.44,9.19 -0.46,0.26 -2.64,0.32 -3.1,0.57 0.33,-3 1.13,-6.24 -0.29,-9.1 1.72804,-3.93869 9.92287,-12.04678 14.13,-17.54 -3.71,-4.32 -2.15,-10.47 -5.9,-14.71 0.34,-4.47 0.47147,-8.51574 0.0515,-13.01574 -0.49,-4.54 -1.88147,-9.08426 -4.41147,-12.80426 -0.23,-1.08 -0.72517,-3.56421 -0.90517,-4.63421 -0.23,-4.27 0.92375,-9.03579 0.91375,-13.29579 1.92463,2.26122 3.0827,4.07703 4.05139,5.92 z"
       id="path3829" />
    <path
       style="fill:#8a5502"
       d="m 283.91366,153.52865 c 1.72,0.01 4.54634,1.82135 6.27634,1.73135 1.78644,-0.0133 1.17217,-1.9759 5.26,-0.88 3.81,2.35 3.3,4.9 5.63,6.29 2.1,1.25 4.55,2.28 7,2.56 3.12,-0.92 4.81,-4.82 8.37,-3.88 3.83,0.38 7.34,4.01 8.98,7.22 3.41,7.07 6.78497,14.17574 12.03497,20.03574 1.94,2.47 3.80612,3.66682 5.3211,5.93365 0.01,4.26 -0.92607,10.54061 -0.69607,14.81061 -4.4,-3.82 -6.99,-9.19 -11.09,-13.3 -4.16,-5.55 -9.94,-9.48 -15.21,-13.87 -5.44,-4.54 -11.98767,-7.66834 -17.99,-11.02 -1.67236,-0.91237 -5.37496,-2.91207 -7.96434,-4.38266 -1.67,-2.99 -4.062,-8.37869 -5.922,-11.24869 z"
       id="path3831" />
    <path
       style="fill:#8a5502"
       d="m 154.01,158.73 c 10.95,-1.18 22.01,-1.24 33,-0.59 6.95,0.92 14.03,0.51 20.93,1.86 8.99,1.64 18.47,2.71 26.36,7.68 4.04223,3.16741 5.15965,10.90905 6.52965,15.41905 -6.13401,-7.61309 -6.94498,-8.67172 -10.60447,-10.3427 -7.71223,-2.57153 -14.8,-4.70224 -22.48,-5.78224 -16.79,-2.62 -33.78518,-3.18518 -50.73518,-2.09518 -10.33,1.28 -21.53894,1.57742 -31.85894,2.90742 -8.48,-0.07 -19.09822,-0.19117 -26.688225,-4.72117 4.436705,-0.0722 9.777165,0.95482 13.617165,0.95482 6.83,-0.16 13.23,-2.93 19.97,-3.78 7.23,-1.56 14.63,-1.15 21.96,-1.51 z"
       id="path3833" />
    <path
       style="fill:#472e02"
       d="m 277.31031,157.0775 c 6.9486,3.71888 5.82534,2.86702 13.04969,7.0325 0.66,1.2 1.31,2.41 1.97,3.62 2.85,5.23 5.54,10.56 8.89,15.49 3.04,-0.44 4.37,-4.9 7.78,-3.62 5.27,2.09 9.13,6.45 13.12,10.3 2.88,3.12 5.98,6.04 8.75,9.25 1.45,1.61 1.37,3.87 1.26,5.89 -5.18,0.45 -6.49,-5.5 -10.13,-7.9 -2.96,-2.43 -8.87,-4.68 -10.89,-0.04 -1.5,4.88 1.95,10.08 0.22,15.03 -1.6,3.63 -6.94,3.27 -9.66,1.15 -9.47,-6.73 -15.14,-17.24 -23.68,-24.95 -0.68,-0.61 -2.79001,-2.30634 -3.46001,-2.90634 2.43451,-8.21333 3.73147,-20.85978 2.78032,-28.34616 z"
       id="path3835" />
    <path
       style="fill:#c4ac5c"
       d="m 151.51553,165.35624 c 18.67,-2.28 37.76482,-1.36223 56.28482,1.71777 7.54,0.98 18.30799,3.59188 24.81128,6.80117 2.34766,1.75964 3.78014,3.12766 8.0399,8.77294 0.89,2.61 -1.98259,4.59894 -3.59259,5.91894 -10.66922,-1.53254 -22.08404,-11.07729 -33.44041,-7.62518 -9.47853,-2.13959 -18.5333,-4.20371 -28.2533,-3.66371 -15.3548,3.27583 -34.67822,3.87084 -48.19711,-0.25594 -1.85,-2.22 -3.80635,-5.13223 -2.45518,-9.12081 8.89,-1.43 17.73777,-1.76965 26.80259,-2.54518 z"
       id="path3839" />
    <path
       style="fill:#bba759"
       d="m 125.51146,174.92036 c 7.59255,-2.38128 15.3482,-3.79566 23.60975,-1.73137 23.85955,-2.04764 47.8892,-1.02603 52.41132,1.94559 3.15842,-4.88338 36.58186,11.13727 38.78672,10.77228 l -4.85269,4.287 -106.70242,-11.52583 z"
       id="path4684" />
    <path
       style="fill:#b09950"
       d="m 127.10071,177.02223 c 4.54,-2.24 10.27964,-1.43188 15.36929,-0.44223 3.2,0.63 6.43,0.03 9.6,-0.48 3.98,-0.63 7.88,1.19 11.86,0.6 3.54,-0.41 7.76559,-1.40518 11.53635,0.47706 5.64835,-0.72625 19.15886,1.51709 27.98365,3.6637 -0.34965,-2.15152 -0.86,-3.87076 1.11,-4.30076 5.99,1.93 12.29,2.82 17.97,5.66 5.1,0.87 9.48153,5.24706 14.46153,6.36706 -4.77439,6.096 -3.38226,12.06395 5.63365,14.55071 3.18,0.8 6.71316,2.27057 9.36316,4.27057 -3.57,3.71 -7.66,7.62266 -11.58,10.94266 -5.13,0.22 -10.50067,0.86334 -14.99067,3.42334 -28.22828,-2.39055 -60.56658,-2.31146 -82.47437,-14.47434 -2.69,-6.51 -4.40518,-12.92553 -6.83518,-19.53553 -1.62,-4.53 -5.65741,-7.56224 -9.00741,-10.72224 z"
       id="path3847" />
    <path
       style="fill:#bba759"
       d="m 142.85,207.3 c 1.94719,4.11694 2.36477,3.80056 3.05,4.6 l 44.45,4.65 32.1,7.95 c 0.16892,-1.03783 1.66758,-2.18516 3.15,-2.95 -0.54569,-1.57672 -2.6,-2.85345 -5.53707,-2.48017 -3.20428,-2.86823 -9.39784,-3.9462 -12.06479,-4.04497 -5.59593,-2.55428 -17.49186,-2.85855 -23.23779,-3.91283 -5.0388,-1.32708 -15.62761,-0.25415 -20.36641,-1.58123 -7.75999,-0.67639 -14.48095,0.25379 -21.54394,-2.2308 z"
       id="path4686" />
    <path
       style="fill:#c7b064"
       d="m 144.3933,210.21259 c 6.71,2.89 13.3867,1.56741 20.4367,2.36741 6.71,1.3 13.84,0.63 20.54,2.02 7.64,1.35 15.19,1.06 22.46,3.97 6.69761,1.00884 9.57713,2.16471 14.519,5.18667 -1.01833,0.81933 1.32033,-0.0753 0.59033,0.97467 -1.51,-0.59268 -2.51933,-0.40134 -3.87933,0.3687 -5.79117,5.82214 -21.69062,4.74576 -31.44457,4.70624 -15.07884,-0.70192 -25.75882,-6.04284 -34.94284,-10.89954 -4.68887,-3.64262 -5.25077,-4.16915 -8.27929,-8.69415 z"
       id="path3879" />
    <path
       style="fill:#472e02"
       d="m 388.51,180.47 c 1.45,-1.66 2.87,-3.11 5.63,-2.93 1.96,0.23 1.13,1.66 1.71,2.5 6.41,0.82 12.38,3.76 17.7,7.32 0.95,0.87 2.48,1.52 2.83,2.85 1.72966,3.37047 4.48484,5.53155 5.01,8.14 0.75,4.31 0.38,9.1 -0.69,13.28 -1.02,4.16 -4.62,8.03 -6.81,11.6 -9.18877,1.7674 -14.50535,1.50488 -18.61,9.96 -7.33304,9.93625 -18.42404,19.59774 -28.55,25.05 -3.23722,2.77297 -11.11128,11.05244 -1.98,13.27 7.55,1.84 12.2,8.2 18.41,12.44 6.72,6.15 15.06,11.77 19.28,20.15 -0.58,3.37 -4.77,2.15 -8.29,1.48 -8.79,-5.62 -15.14,-14.27 -23.76,-20.1 -6.06,-3.72 -12.94,-7.12 -20.16,-6.9 -7.28,5.31 -7.3,16.41 -15.28,21.02 -3.99,-2.14 -2.84,-7.39 -1.31,-10.78 1.86,-3.65 3.28,-7.72 5.51,-11.08 0.46,-0.25 1.39,-0.76 1.85,-1.02 0.43,-2.9 0.04,-5.94 0.99,-8.74 1.75,-2.53 4.29,-4.36 6.36,-6.61 3.62,-4.44 10.02,-4.17 14.27,-7.73 5.59,-3.43 8.61,-8.47 13.28,-12.965 1.06,-1.37 1.51,-3.005 2,-4.245 4.22,-5.23 8.105,-10.2 13.055,-14.75 2.18,-2.22 5.625,-1.09 8.335,-1.46 2.04,-0.12 4.09,-1.29 5.59,-2.49 -2.58,-4.37 -8.07,-1.52 -11.71,-3.91 -4.78,-2.29 -8.88,-6.27 -14.3,-6.96 0.13,3.58 5.37,5.05 3.87,8.82 -1.04,3.87 -5.02,5.94 -8.29,7.71 -5.31,1.29 -10.88,0.53 -16.28,0.39 -0.63,-1.73 -1.48,-4.45 -1.99,-6.22 -0.57,-2.36 -3.13,-4.82 -5.61,-6.92 -2.09685,-4.24168 -2.79439,-8.05193 -3.59,-12.03 6.25,-5.7 14.78,-10.1 22.63,-13.08 6.05,-2.44 12.3,-4.82 18.9,-5.06 z"
       id="path3855" />
    <path
       style="fill:#8a5502"
       d="m 249.18142,180.12847 c 2.69,2.23 4.40858,6.57153 4.76858,9.86153 -0.96,4.17 -6.38188,2.41365 -9.55188,2.00365 5.29332,-2.45834 5.30414,-6.02679 4.7833,-11.86518 z"
       id="path3857" />
    <path
       style="fill:#805515"
       d="m 259.455,213.515 c 9.13,-10.79 12.204,-21.15134 15.21799,-28.23434 0.67,0.6 2.63701,2.43934 3.31701,3.04934 -2.92,1.7 -3.63,5.08 -4.65,8.01 -1.56,4.87 -9.71,14.875 -12.62,19.23 -0.445,-0.615 -0.945,-1.64 -1.265,-2.055 z"
       id="path3861" />
    <path
       style="fill:#392603"
       d="m 416.59,191.8 c -0.05,-0.4 -0.16,-1.19 -0.21,-1.59 2.43,1.83 4.92,4.04 6.14,6.87 2.16624,3.66832 5.1035,8.99818 3.57,19.57 -1.59,6.74 -7.76,12 -14.51,13.12 -1.33,0.35 -2.79,0.29 -4,0.97 -11.42,8.9 -20.3,20.79 -32.63,28.57 12.91,3.25 26.81,4.81 38.05,12.54 1.72,1.45 4.34,3.54 3.07,6.08 -1.36,2.49 -4.75,1.83 -6.95,1.02 -8.56,-3.37 -16.81,-7.74 -25.9,-9.53 -2.19,-0.28 -4.55,-0.63 -6.65,0.22 -0.9,1.62 0.67,3.05 1.44,4.35 6.78,8.17 15.27,14.68 22.39,22.52 2.16,2.5 4.52,6.14 2.62,9.45 -2.02,3.33 -6.53,1.66 -8.87,-0.38 2.32,-0.93 6.86,1.99 7.44,-1.38 -4.22,-8.38 -12.26,-13.6 -18.98,-19.75 -6.21,-4.24 -11.71,-10 -19.26,-11.84 -6.76,-1.54 -13.65,-2.43 -20.47,-3.64 1.87,-1.45 3.76,-3.45 6.33,-3.3 3.38,-0.06 7.34,1.39 10.07,-1.34 -1.24,-1.18 -2.47,-2.38 -3.7,-3.56 3.48,-0.94 7.24,-1.04 10.45,-2.83 5.7,-2.99 10.52,-7.36 15.34,-11.55 3.9,-4.74 9.52,-7.96 12.36,-13.55 1.61,-3.37 4.9,-5.31 7.93,-7.23 3.47,-2.28 7.81,-2.15 11.73,-3.03 2.19,-3.57 5.19,-6.79 6.21,-10.95 1.07,-4.18 1.84,-8.57 1.09,-12.88 -0.47,-2.75 -2.75,-4.64 -4.1,-6.95 z"
       id="path3867" />
    <path
       style="fill:#9e6914"
       d="m 144.84075,245.81631 c -6.01705,-5.04796 -11.7476,-13.65073 -13.15819,-20.09467 -1.25594,-5.73749 2.96733,-17.30797 9.57308,-17.32434 l -0.12112,1.15777 c -15.34573,8.35025 -5.2401,26.54571 4.36171,35.8925 z"
       id="path3885" />
    <path
       style="fill:#8a5502"
       d="m 134.37335,230.21259 c -4.11163,-9.24793 0.99782,-19.92886 7.19935,-20.89346 -0.62706,6.796 1.23542,10.69523 5.63812,14.55112 -0.44599,9.65433 2.17481,12.3264 3.57776,18.42757 -1.62,1.1 -3.71817,2.09629 -5.32817,3.19629 -4.73225,-4.34831 -9.42992,-11.36165 -11.08706,-15.28152 z"
       id="path3889" />
    <path
       style="fill:#643e4d"
       d="m 142.31447,207.58406 c 2.45,2.69 3.58553,6.31594 6.19553,8.86594 4.7,4.7 11.05,7.14 17.05,9.72 7.28366,1.8121 17.80189,5.42177 24.28,4.58 5.6,-0.47 11.28,0.21 16.84,-0.86 4.32,-0.7 8.38888,-2.34594 12.32406,-4.25929 1.80367,0.581 6.37497,3.93863 6.10496,8.54999 -1.34298,1.40057 -2.63309,-0.0166 -9.44702,2.30064 -5.62733,1.42866 -10.49383,1.97862 -16.122,2.09933 -6.05635,0.0622 -11.01734,-0.34 -16.18734,-0.66 -12.74,-1 -24.16266,-6.11067 -34.96266,-12.77067 -2.14,-2.41 -4.88447,-4.76629 -6.07447,-7.82629 -0.95,-3.05 -1.38929,-6.64706 -0.001,-9.73965 z"
       id="path3881" />
    <path
       style="fill:#472e02"
       d="m 342.73,210.57 c 2.53,3.72 4.77,7.84 5.26,12.38 0.42,4.5 -0.56,8.97 -0.9,13.44 -4.23,2.01 -4.67,6.88 -5.93,10.81 -0.75,2.35 -3.32,2.99 -5.41,3.56 -3.61,-4.04 -4.19,-9.6 -6.08,-14.47 -2.18,-6.71 -6.46,-12.99 -5.97,-20.33 0.72,-2.13 3.23,-2.95 5.26,-3.21 3.74,1.2 6.23,4.8 10.08,5.75 3.02,-1.38 2.98,-5.16 3.69,-7.93 z"
       id="path3887" />
    <path
       style="fill:#b09950"
       d="m 258.08,215.18 c 0.38,-0.36 1.13,-1.1 1.51,-1.47 2.34,4.25 5.74,7.9 7.2,12.62 1.59,4.45 3.73,9.64 1.39,14.2 -3.23142,2.41411 -4.41937,6.4946 -3.26937,10.30496 -1.04,5.28 -1.61063,11.51504 -2.02063,16.84504 -3.04,2.36 -5.87,5.09 -9.36,6.78 -2.4,1.14 -4.78,3.37117 -6.96,4.90117 -3.24,-0.3 -7.57858,-0.64482 -10.80858,-1.03487 -4.96,-0.69 -8.29954,1.90152 -9.68674,1.57117 -13.40748,-1.64743 -39.83069,-2.08367 -55.1195,-11.37082 -6.31,-4.44 -11.67,-10.01294 -15.24,-16.87294 0.62,-2.26 -1.18619,-6.67077 -1.87619,-8.78077 20.17507,2.8445 35.26547,18.38057 60.50766,16.69734 8.8781,-1.21535 -4.06637,-3.06564 -3.07238,-5.46031 2.51368,-7.64806 10.3384,-1.80633 10.6894,-2.85633 8.47856,1.08044 10.35338,-9.56038 6.23633,-12.41366 -0.92101,-0.61832 -8.47074,-4.11667 0.0737,-5.26 5.53,0.27 13.07502,-3.28868 15.292,-6.38067 2.28,0.95 5.05434,1.68633 7.32434,2.68633 7.76028,1.00731 7.25501,-3.78756 6.824,-6.32 -1.07,-1.9 -1.95433,-2.92633 -4.77201,-3.94899 0.4,-0.35 2.04801,-1.52667 2.43801,-1.87667 0.94,-0.81 1.82,-1.68 2.7,-2.56 z"
       id="path3891" />
    <path
       style="fill:#896668"
       d="m 241.69,219.36 c -0.15171,-1.28567 13.59836,-0.46001 15.48967,4.25067 C 252.17402,221.288 242.53647,221.50845 241.69,219.36 Z"
       id="path3901" />
    <path
       style="fill:#643e4d"
       d="m 242.258,219.87056 c 6.61574,-0.56364 12.59326,2.02978 14.932,3.77944 1.15808,1.83092 -0.11934,5.67766 -2.16,5.95 -3.98,0.64 -7.64367,-1.62333 -11.37367,-2.9 -0.33,-2.35 -0.91833,-4.50944 -1.39833,-6.82944 z"
       id="path3903" />
    <path
       style="fill:#261115"
       d="m 246.27,223.23 c 1.48,-1.17 2.99,1.48 1.6,2.46 -1.5,1.17 -2.99,-1.47 -1.6,-2.46 z"
       id="path3911" />
    <path
       style="fill:#9a853a"
       d="m 257.85,224.69 c 1,2.27 2.04,3.55 2.69,5.95 0.28,2.47 -2.1,4.89 -4.44,4.19 -2.45,-0.4 -4.59834,-3.36667 -6.49834,-5.19667 1.71,0.02 4.78301,0.933 6.41301,0.183 1.82,-1.48 2.45533,-2.87633 1.83533,-5.12633 z"
       id="path3913" />
    <path
       style="fill:#643c44"
       d="m 223.93497,226.51767 c 2.65634,-1.81567 11.27573,-4.8237 14.44341,-4.94937 0.7388,1.13968 1.90116,3.49423 1.29363,6.56303 -3.30932,2.40901 -8.82968,3.071 -12.36968,3.341 -0.74317,-2.68576 -2.43162,-3.964 -3.36736,-4.95466 z"
       id="path3917" />
    <path
       style="fill:#7eb194"
       d="m 240.65333,218.53132 c 1.69016,1.641 3.1361,6.95132 1.72234,9.41734 -4.20069,5.19604 -12.82275,5.35104 -14.86376,5.13003 l -0.20937,-1.14522 c 7.64043,-0.60037 11.45486,-2.40278 13.0748,-4.7548 l -0.41004,-2.08201 c -2.20201,0.81467 -2.39134,0.82334 -4.58336,0.82768 l 0.363,-1.82735 c 1.93502,-0.35833 3.04036,-0.69432 3.11537,-2.15198 0,0 -0.45986,-1.06709 -1.02499,-1.56501 -4.92044,0.29977 -10.36463,2.6419 -14.55867,4.81767 -2.55903,-2.84248 11.8267,-7.89981 17.37467,-6.66635 z"
       id="path3899" />
    <path
       style="fill:#416956"
       d="m 235.49035,225.82567 c 2.466,-0.23966 4.72367,-1.54965 5.43233,-2.28233 -0.60201,1.89366 -3.04199,3.23198 -5.43233,2.28233 z"
       id="path3909" />
    <path
       style="fill:#b09950"
       d="m 147.41847,230.44 c -0.19482,-1.70259 -0.25705,-4.06929 -0.10705,-5.82929 10.73056,7.75637 25.42309,13.04389 39.83262,13.74128 10.2099,1.15177 18.50914,0.11818 29.27864,-1.662 -0.63,1.46 -3.02601,4.90201 -3.58601,6.39201 -22.07594,3.75013 -48.9878,-0.58279 -65.4182,-12.642 z"
       id="path3919" />
    <path
       style="fill:#472e02"
       d="m 294.36,229.58 c 7.12,3.83 11.79,10.76 15.96,17.46 -0.78262,1.74522 -1.94997,3.93632 -3.68999,5.32067 -0.48,-0.17 -2.84234,-0.89134 -3.33234,-1.07134 -3.28,-1.21 -6.74767,-1.95933 -10.28767,-1.78933 -2.99,-0.12 -7.04,0.28 -8.52,-3 -1.26,-2.96 1.66,-5.1 3.47,-6.94 -0.92,-2.94 -3.47,-5.37 -3.39,-8.55 0.41182,-4.23946 7.5741,-2.68555 9.79,-1.43 z"
       id="path3923" />
    <path
       style="fill:#c7b064"
       d="m 147.28365,230.44 c 4.21371,0.44147 7.71635,4.42 11.63635,5.73 16.74,7.19 36.17734,8.15233 54.10734,6.29233 -1.20516,2.55503 -2.25253,4.38197 -3.49367,7.807 1.01,0.85 1.97233,1.66233 3.02233,2.48233 -1.07,1.68 -2.32067,3.98968 -3.44067,5.63968 -18.18901,-2.17437 -38.32908,-11.80385 -58.58944,-17.09464 -1.18,-3.37 -2.34224,-7.4067 -3.24224,-10.8567 z"
       id="path3925" />
    <path
       style="fill:#271011"
       d="m 210.43934,232.22 c 1.84,-0.66 2.37,2.29 0.65,2.69 -1.76,0.56 -2.52,-2.4 -0.65,-2.69 z"
       id="path3929" />
    <path
       style="fill:#261215"
       d="m 200.32792,235.93726 c -1.72,-1.34 0.056,-3.59918 1.57741,-2.40659 1.51294,1.23 -0.32706,3.25 -1.57741,2.40659 z"
       id="path3933" />
    <path
       style="fill:#bafbf1"
       d="m 218.94,234.18 c 2.42707,0.1928 4.64292,1.24085 6.23,2.73 -4.60434,-1.06267 -8.84526,1.6411 -9.38166,6.72667 -0.53641,5.08557 3.27334,7.11134 5.83433,7.85733 -0.46,0.7 -1.60833,2.71967 -2.35433,3.41967 -2.72,-0.79 -7.89102,-3.04235 -8.82101,-4.65235 -0.20447,-2.0936 5.39626,-13.14185 8.49267,-16.08132 z"
       id="path3937" />
    <path
       style="fill:#c7b064"
       d="m 228.2,238.84 c 3.34,-0.7 8.88203,-2.04426 11.35208,-3.49132 1.27508,1.68179 3.56144,5.81841 3.36914,8.79345 -0.38689,5.9855 -3.64667,9.68648 -9.57625,12.17782 -1.51369,0.9218 -5.92416,-0.43284 -6.66492,-1.66924 2.20782,-1.64431 3.83568,-4.41142 4.13142,-7.00142 0.09,-2.03 0.0285,-3.89929 -0.59147,-5.79929 -0.62,-1.04 -1.29,-2.04 -2.02,-3.01 z"
       id="path3939" />
    <path
       style="fill:#906212"
       d="m 341.16,247.2 c 1.26,-3.93 1.7,-8.8 5.93,-10.81 -0.54,5.71 -3.38,10.92 -6.86,15.37 -1.5,-0.34 -2.99,-0.63 -4.48,-1 2.09,-0.57 4.66,-1.21 5.41,-3.56 z"
       id="path3941" />
    <path
       style="fill:#8a5502"
       d="m 347.09,236.39 c 3.75,4.24 4.39,10.24 8.1,14.56 -5.69408,7.43685 -10.51459,12.76172 -16.33,17.69 -6.22,4.44 -13.03,8.48 -20.52,10.24 -2.26462,0.38569 -5.0879,0.45827 -7.93002,0.573 2.30101,-2.33767 3.76568,-4.72834 4.44568,-7.28834 0.42,-2.49 0.28834,-4.86699 -0.05,-7.36699 4.3,-1.25 8.45434,-4.96767 7.51434,-9.76767 2.13,2.43 4.26,4.88 5.96,7.65 4.69,-2.81 8.92,-6.33 11.95,-10.92 3.48,-4.45 6.32,-9.66 6.86,-15.37 z"
       id="path3943" />
    <path
       style="fill:#bafbf1"
       d="m 224.4,237.46 c 8.62207,1.73275 6.40523,15.38239 -2.74666,13.37 -9.15189,-2.01239 -5.87541,-15.10275 2.74666,-13.37 z"
       id="path3945" />
    <path
       style="fill:#7eb194"
       d="m 218.94933,225.17332 c 2.82352,-2.31529 5.20362,1.46785 6.75967,3.14435 3.28797,5.15895 1.54585,12.55588 -2.51134,12.63599 1.43932,-1.78632 2.57022,-5.52866 1.77567,-8.64831 -0.79455,-3.11966 -4.21536,-6.52714 -6.024,-7.13203 z"
       id="path3915" />
    <path
       style="fill:#bba759"
       d="m 150.52589,241.22929 c 1.99,-2.25 5.59411,-0.82929 8.00411,-0.56929 2.51,2.86 6.4,1.53 9.69,1.8 -0.6,0.82 -1.19,1.64 -1.79,2.47 4.41,1.94 9.42,1.63 13.8,3.64 4.37,1.64 8.93,2.82 13.01,5.17 4.86,2.88 11,1.11 15.78,4.27 1.12,-1.65 1.46499,-1.95765 2.53499,-3.63765 2.31,0.96 4.301,2.52567 6.631,3.45567 0.3,0.31 2.05401,-1.36802 2.35401,-1.05802 0.55377,1.3142 -1.75944,2.20531 -3.81,3.42 0.76,0.49 1.51,1 2.25,1.52 -2.62,0.59 -5.35,1.15 -8.01,0.43 -5.92,-1.43 -12,-1.91 -17.96,-3.07 -5.62,-1.03 -10.53,-4.09 -15.75,-6.24 -3.32,-1.36 -7.22,-0.78 -10.3,-2.79 -1.18,-0.63 -2.36,-1.92 -3.68,-0.72 -0.95,-1.43 -1.81,-2.92 -2.75,-4.35 -0.2,1.42 -0.36,2.85 -0.61,4.27 -1.34,-1.22 -2.36,-2.72 -3.07,-4.38 -0.5,-0.17 -1.51,-0.52 -2.01,-0.7 0.69,2.11 2.03447,4.8967 0.80777,7.49376 -1.77,-3.23 -3.79188,-6.98447 -5.12188,-10.42447 z"
       id="path3947" />
    <path
       style="fill:#a66701"
       d="m 144.87376,246.23477 c 2.11,-1.38 3.87183,-2.29294 6.07183,-3.53294 0.62,1.34 1.2637,2.79111 1.8737,4.14111 L 147.49,262.8 c 6.7864,-0.86899 11.04411,0.69183 15.19559,3.32847 4.06,2.3 6.27843,6.78384 10.64843,8.61384 5.27,2.58 5.66903,2.02338 11.21903,3.88338 3.00422,0.98518 7.73744,2.61572 6.36695,6.24431 -1.29609,2.34059 -7.59922,0.7845 -10.4,-0.12 -4.48433,-2.50712 -18.35232,-10.40406 -19.84406,-8.51635 -3.19187,2.02255 16.33794,15.42196 20.5579,19.47679 1.36706,1.26 6.9018,5.78722 4.65769,8.84844 -2.12731,1.95275 -7.71376,-2.96959 -10.69376,-5.30959 -6.428,-5.23321 -18.41774,-17.51835 -24.37458,-16.68041 -3.28254,-0.0718 -5.4683,8.24147 -7.6912,13.35355 -0.82,1.3 -3.01747,6.04321 -6.0294,4.5698 -1.72599,-0.93216 -0.54131,-4.6191 0.15033,-6.5976 4.2851,-7.89826 6.50861,-9.40354 6.78272,-13.02117 l -3.63093,-3.52022 c -0.91988,-0.95233 -1.41801,-2.17938 -1.49278,-3.71507 -5.47081,1.43524 -13.02392,-1.02264 -13.33752,-4.60964 0.31834,-9.92463 12.22363,-17.45873 19.29935,-22.79376 z"
       id="path3953" />
    <path
       style="fill:#392603"
       d="m 300.81966,244.333 c 0.51,-0.15 2.33034,-0.603 2.83034,-0.763 1.95,1.62 4.16,2.91 6.67,3.47 0.77,1.13 1.56,2.26 2.36,3.39 1.44,-0.41 2.85,-1.18 4.39,-1.02 2.63,0.85 3.82,3.5 5.25,5.62 1.083,4.75233 -2.78533,8.80367 -7.562,9.863 -1.47578,-5.32954 -4.43919,-8.66068 -8.76838,-13.13869 -2.09697,-3.52702 -2.2543,-3.83697 -5.16996,-7.42131 z"
       id="path3955" />
    <path
       style="fill:#8a5502"
       d="m 152.81929,246.84294 c 5.66975,10.56275 9.86,16.26606 17.34261,21.52622 -0.49747,0.52741 -1.89462,1.5439 -2.46873,1.89425 -3.75618,-3.91883 -11.47459,-9.41224 -20.20317,-7.46341 -3.93,0.2 -9.12,1.95 -11.96,-1.73 2.63,-3.85 6.2,-6.97 10.23,-9.28 2.28,-1.37 5.51929,-2.63706 7.05929,-4.94706 z"
       id="path3959" />
    <path
       style="fill:#fcfefb"
       d="m 127.73,250.48 c 3.14,-0.06 6.28,0.06 9.42,0.03 l -0.41,0.34 c -3.04,-0.02 -6.07,-0.18 -9.09,-0.37 l 0.08,0 z"
       id="path3965" />
    <path
       style="fill:#a66701"
       d="m 115.23611,252.76716 c 1.26558,-0.0637 6.23727,-0.23482 6.98727,-0.26482 1.36842,-2.60757 10.33062,-4.3688 18.32536,-3.13539 -6.62204,4.58711 -12.58961,10.77245 -14.37138,15.80809 -2.7633,1.16445 -13.19509,3.34138 -14.05846,-0.74398 -0.32052,-2.49275 2.70842,-3.78581 3.22795,-4.22245 -5.67245,0.12934 -9.95996,0.2897 -10.24356,-1.87823 -0.12779,-1.28141 2.64312,-4.68628 10.13282,-5.56322 z"
       id="path3967" />
    <path
       style="fill:#ae8f39"
       d="m 222.15434,251.39666 c 2.13167,1e-5 5.06179,-0.65835 6.14045,-2.22602 1.37735,4.63002 -8.75749,5.99537 -6.14045,2.22602 z"
       id="path3969" />
    <path
       style="fill:#9a853a"
       d="m 264.82347,250.90237 c 0.49168,1.01504 1.54359,1.47507 1.7628,2.57723 0.41519,2.08747 1.55994,5.61143 5.42995,10.18826 -1.79,6.67376 -6.2714,13.33778 -12.0614,15.62778 -4.18,1.89 -9.01482,0.54812 -13.38482,-0.002 2.18,-1.53 4.56,-3.69376 6.96,-4.83376 3.49,-1.69 5.91553,-5.09412 9.36,-6.78 -0.26552,-6.51887 0.75864,-13.18291 1.93347,-16.77763 z"
       id="path3975" />
    <path
       style="fill:#8a5502"
       d="m 303.25,251.24166 c 0.49,0.18 2.32801,0.56767 2.80801,0.73767 3.69,3.04 6.722,7.63667 8.27533,11.75367 0.33,2.13 0.73467,4.107 0.80467,6.277 -0.15,4.17 -2.96601,8.356 -6.59601,10.376 -9.09,5.34 -19.71766,7.38134 -29.972,10.474 -0.27,0.26 -0.81,0.79 -1.08,1.05 -2.23,1.87333 -3.27382,2.95015 -5.61348,4.71283 -3.47651,0.92023 -10.59752,2.00255 -12.65217,2.94616 -11.09252,6.13123 -11.69902,10.84674 -18.70182,14.82283 4.84166,-5.31769 7.85938,-10.34493 11.78747,-15.70182 0.46,-0.38 0.93,-0.76 1.4,-1.13 2,-1.62 4.1,-3.15 6.26,-4.55 2.1,0.25 4.33,1.22 6.39,0.3 3.79,-1.64 6.24,-5.13 8.92,-8.11 11.36,-0.81 22.76,-5.96 30.01,-14.9 3.04,-6.26 -0.08,-13.03834 -2.04,-19.05834 z"
       id="path3977" />
    <path
       style="fill:#ae8f39"
       d="m 211.98,256.05 c -1.51139,-4.77653 7.36378,3.50356 9.03667,-0.32868 0.93741,-1.30234 1.99882,-0.0476 1.36394,1.18469 -1.05998,1.75691 -2.6666,4.15267 -5.65061,3.28399 -2.70334,-1.31067 -4.25,-1.84 -4.75,-4.14 z"
       id="path3983" />
    <path
       style="fill:#694d42"
       d="m 141.03,277.49 c 0.14,0.11 0.41,0.31 0.55,0.41 -0.14,-0.1 -0.41,-0.3 -0.55,-0.41 z"
       id="path3993" />
    <path
       style="fill:#896668"
       d="m 142.97959,207.22264 -0.64043,0.33707 c 0.58424,3.01104 1.57294,5.24685 5.96591,9.60612 4.58397,4.50533 11.99923,7.56131 17.25732,9.63983 4.47054,1.44451 14.46881,4.33836 24.70302,4.43465 12.89914,0.11724 19.43542,0.89354 31.15354,-4.35328 l -2.13521,-1.1677 c -5.20355,4.53502 -20.86953,4.56478 -31.50929,4.08614 -13.90922,-0.99994 -26.4028,-5.90974 -35.22246,-11.08918 -5.06708,-3.66269 -7.26919,-8.0332 -9.5724,-11.49365 z"
       id="path4231" />
    <path
       id="path4250"
       d="m 219.61348,230.21261 c 1.77259,-0.45777 2.33629,2.42482 0.65,2.69 -1.92853,0.35777 -2.18294,-2.23147 -0.65,-2.69 z"
       style="fill:#271011" />
    <path
       style="fill:#392603"
       d="m 245.51693,128.41014 c 3.9843,2.33951 8.28428,7.65642 10.84692,11.47686 3.79798,5.25814 7.03659,12.74543 2.97343,18.39928 -0.0823,-9.20973 -2.56361,-14.21614 -13.82035,-29.87614 z"
       id="path4288" />
    <path
       id="path4423"
       d="m 223.48118,225.55672 c 1.2783,-0.76134 9.356,-5.75106 14.25034,-4.3294 0.17102,0.45168 0.69773,0.60202 0.69773,0.60202 -6.32636,0.72702 -11.74174,3.54938 -14.28474,4.53405 -0.28,-0.09 -0.38333,-0.72667 -0.66333,-0.80667 z"
       style="fill:#896668" />
    <path
       style="fill:#271011"
       d="m 229.4329,226.30391 c 2.01093,-0.0288 2.33629,2.42482 0.65,2.69 -2.1192,-0.0712 -2.18294,-2.23147 -0.65,-2.69 z"
       id="path4427" />
    <path
       style="fill:#392603"
       d="m 291.10008,165.46131 -13.8208,-7.58339 -1.28702,-7.79356 9.15687,3.99078 z"
       id="path4456" />
    <path
       id="path4680"
       d="m 157.12127,168.06381 c 21.61271,-2.61266 32.87188,-1.39744 50.04091,2.33066 8.93026,1.93913 18.99725,4.58153 23.95584,6.76076 3.94951,1.73576 6.64457,2.98945 9.71163,5.94382 -2.03279,-4.14827 -6.94498,-8.67172 -10.60447,-10.3427 -7.71223,-2.57153 -14.8,-4.70224 -22.48,-5.78224 -16.79,-2.62 -33.78518,-3.18518 -50.73518,-2.09518 -10.33,1.28 -21.53894,1.57742 -31.85894,2.90742 -1.06606,1.75956 -0.86176,1.35141 -0.87923,2.98954 7.23,-0.004 25.56365,-1.83133 32.84944,-2.71208 z"
       style="fill:#b09950" />
    <path
       style="fill:#bba759"
       d="m 226.6,254.75 c 0.65833,-0.51667 1.19167,-1.08333 1.75,-1.7 1.35,0.69167 3.48614,0.60559 4.25,0.3 4.61419,-1.84594 5.83381,-4.76657 6.6,-8.55 0.61146,-3.01935 -2.075,-8.35 -2.075,-8.35 l 2.475,-1.1 c 0,0 3.44466,4.0761 3.425,8.825 -0.0401,9.69547 -8.40609,12.47482 -10.575,12.475 -4.00013,3.3e-4 -5.85,-1.9 -5.85,-1.9 z"
       id="path4690" />
  </g>
  <g
     id="layer5"
     style="display:inline;fill:none;fill-rule:evenodd;stroke:#2b1604;stroke-width:1.5;stroke-linecap:round">
    <path
       d="m 145.70974,122.3517 c -1.08981,-9.69601 -10.33641,-3.65625 -3.30315,-1.72379"
       id="path4240" />
    <path
       id="path4243"
       d="m 152.7148,121.89378 c 7.12719,-11.32107 13.06493,1.96343 4.06543,-2.18749" />
    <path
       d="m 317.91521,165.02086 c 1.31993,6.64681 4.76118,10.96016 7.77817,14.42499"
       id="path4475" />
    <path
       d="m 277.68083,159.08117 c 1.93277,-2.852 7.75462,2.2156 2.12133,4.94975"
       id="path4477" />
    <path
       d="m 279.51931,180.29438 c -0.56568,-1.81491 2.09291,-3.92735 3.74767,-2.26275 1.50348,1.51242 1.41421,3.65339 -0.77782,4.94975"
       id="path4480" />
    <path
       d="m 297.28537,192.05002 c 4.00104,-2.01525 6.90498,1.25188 7.17713,4.34871 0.28424,3.23438 -3.8007,4.1955 -6.417,2.42184"
       id="path4482" />
    <path
       d="m 327.1,220.45 c 0.96667,-4.975 4.92087,-4.77567 7.325,-1.725 2.33387,2.96152 1.08333,8.1 -3.925,6.75"
       id="path4484" />
    <path
       d="m 363.3,198.225 c 2.03333,-3.18333 4.08304,-2.79199 5.05,-0.85 0.88643,1.78026 0.875,4.14167 -2.7,5.8"
       id="path4486" />
    <path
       d="m 399.075,196.2 c 0.99167,-1.08333 2.78222,-1.13016 3.35,0.05 1.02567,2.13189 0.5,4.50833 -2.925,5.75"
       id="path4490" />
    <path
       style="stroke:#613201"
       d="m 315.26356,198.21953 c 3.01699,-1.8974 5.42111,1.15669 5.51544,3.53553 0.1769,4.461 -2.76951,3.46483 -4.9144,2.01526"
       id="path4492" />
    <path
       style="stroke:#613201"
       d="m 287.29749,210.34641 c 3.29983,-1.07244 5.47259,-0.0746 5.97505,3.67696 0.42421,3.16731 -3.86552,4.06586 -6.54074,2.65165"
       id="path4494" />
    <path
       style="stroke:#472e02"
       d="m 313.5,235.1 c 1.83333,-3.03333 5.49233,-3.16606 7.05,-0.85 3.68445,5.47834 -0.48333,7.21667 -3.7,6.55"
       id="path4496" />
  </g>
  <g
     id="layer4"
     clip-rule="nonzero"
     style="display:inline">
    <clipPath id="eye-clip">
      <path
       id="eye-right_clip"
       d="m 214.9,64.71 c 6.39,-1 13.86,-1.12 18.98,3.46 7.37,5.14 9.62,14.87 8.04,23.34 -3.22,7.63 -10.47,13.65 -18.85,14.4 -8.01,1.47 -16.37,-2.62 -20.46,-9.58 -3.06,-5.19 -3.38447,-11.35 -1.95447,-17.03 1.0089,-7.095314 7.90137,-13.409254 14.24447,-14.59 z" />
      <path
       id="eye-left_clip"
       d="m 153.24,70.57 c 9.97,4.8 13.77,18.04 9.44,27.88 -3.19,0.49 -6.31,1.32 -9.27,2.61 -5.35,2.04 -9.72,5.83 -14.32,9.11 -1.01,0.86 -2.39,1.23 -3.66,0.74 -7.55,-2.4 -12.93,-9.5 -14.07,-17.22 -1.4259,-7.769117 0.1356,-13.042175 4.84,-17.84 5.63112,-5.69947 14.64031,-10.355658 27.04,-5.28 z" />
    </clipPath>
    <path
       style="fill:#faee05;filter:url(#glow)"
       d="m 223.00515,72.859061 c -5.21167,-0.01032 -6.79247,3.034166 -8.64273,4.706048 -2.04385,1.846801 -8.49965,4.895502 -8.44073,8.26406 0.13174,7.531315 5.19291,7.131911 8.44274,8.026728 1.80997,0.498364 4.84842,3.729075 8.68739,3.813362 5.75769,0.126414 7.23947,-2.567244 9.19608,-4.294698 1.57099,-1.387005 7.79738,-1.016597 7.5454,-7.8174 -0.186,-5.020049 -6.20951,-6.255328 -7.72674,-7.468722 -1.74254,-1.393587 -1.81556,-5.21503 -9.06141,-5.229378 z"
       id="eye-right_yellow"
       clip-path="url(#eye-clip)"
       clip-rule="evenodd">
      <animate
         repeatCount="indefinite"
         keyTimes="0; .0625; .25; .3125; .5; .5625; .75; .8125; 1"
         values="none; url(#glow); none; url(#glow); none; url(#glow); none; url(#glow); none"
         to="url(#glow)"
         from="none"
         dur="800ms"
         attributeName="filter" />
      <animate
         attributeName="d"
         dur="800ms"
         repeatCount="indefinite"
         keyTimes="0;
                   .0625;
                   .125;
                   .1875;
                   .25;
                   .3125;
                   .375;
                   .4375;
                   .5;
                   .5625;
                   .625;
                   .6875;
                   .8125;
                   .875;
                   .9375;
                   1"
         values="m 223.00515,73.566168 c -5.21166,-0.01348 -6.79247,3.104876 -8.64273,4.776758 -2.04385,1.846801 -7.47943,3.693027 -7.45078,7.061979 0.061,7.177762 5.05149,6.778358 8.30132,7.673175 1.80997,0.498364 3.99989,3.658364 7.83886,3.742651 5.75769,0.126414 6.95663,-2.567244 8.91324,-4.294698 1.57099,-1.387005 7.4496,-2.882811 7.40398,-7.110293 -0.0474,-4.386875 -5.99738,-5.548222 -7.51461,-6.761616 -1.74254,-1.393587 -3.30049,-5.073608 -8.84928,-5.087956 z;
                 m 222.79302,70.384187 c -5.21166,-0.01348 -7.42887,4.306958 -9.27913,5.97884 -2.04385,1.846801 -9.03506,3.875734 -8.65286,9.183299 0.51556,7.159482 6.53641,8.546125 9.78624,9.440942 1.80997,0.498364 4.56558,3.941207 8.40455,4.025494 5.75769,0.126414 8.93653,-3.627904 10.89314,-5.355358 1.57099,-1.387005 7.66173,-4.084893 7.61611,-8.312375 -0.0474,-4.386875 -6.35093,-7.174567 -7.86816,-8.387961 -1.74254,-1.393587 -5.3511,-6.558533 -10.89989,-6.572881 z;
                 m 223.69668,69.464949 c -4.96074,-0.01426 -7.07119,4.551604 -8.83237,6.318453 -1.94544,1.951703 -8.60003,4.095884 -8.23624,9.70493 0.49074,7.566157 6.2217,9.031563 9.31506,9.97721 1.72282,0.526671 4.34575,4.165075 7.99989,4.25415 5.48046,0.133595 8.50625,-3.833978 10.36865,-5.659555 1.49535,-1.465789 7.29284,-4.316923 7.24941,-8.784535 -0.0452,-4.63606 -6.04515,-7.582099 -7.48933,-8.864417 -1.65863,-1.472745 -5.09345,-6.931071 -10.37507,-6.946236 z;
                 m 224.33308,72.859056 c -4.96074,-0.01179 -7.35404,3.481643 -9.11522,4.942947 -1.94544,1.614192 -7.64213,3.679623 -7.38771,7.673082 0.26636,4.180829 5.86815,5.984792 8.46654,7.19117 1.61179,0.748322 4.20733,3.211466 7.85846,3.37705 3.99554,0.181203 7.44959,-3.661012 8.95444,-4.892967 1.84569,-1.510991 7.85852,-2.297596 7.81509,-5.992615 -0.0452,-3.834338 -6.11586,-5.775936 -7.56004,-6.8365 -1.65863,-1.218061 -3.74994,-5.449625 -9.03156,-5.462167 z;
                 m 223.83725,75.687475 c -5.06671,-0.0089 -8.21823,3.046014 -10.01704,4.146407 -1.987,1.21552 -7.52253,1.780883 -7.54552,5.77799 -0.0182,3.159931 5.99349,4.506674 8.64739,5.415101 1.64622,0.563503 4.2972,2.630433 8.02633,2.755122 4.08089,0.136449 7.60872,-2.968951 9.14571,-3.896639 1.88512,-1.137807 8.02638,-1.730138 7.98203,-4.512564 -0.0461,-2.887336 -5.68082,-4.844374 -7.15585,-5.643001 -1.69406,-0.917226 -3.68861,-4.03297 -9.08305,-4.042416 z;
                 m 223.83725,74.202551 c -2.45041,0.06181 -7.16329,2.175839 -9.0978,3.015036 -1.987,0.861967 -10.56309,1.922304 -10.65679,8.394285 -0.0457,3.159652 5.56922,5.779466 8.22312,6.687893 1.64622,0.563503 4.65076,2.913276 12.48111,3.108676 4.0819,0.10186 8.31582,-1.76687 9.85281,-2.694558 1.88512,-1.137807 5.83435,-4.558565 5.79,-7.340991 -0.0461,-2.887336 -2.99381,-6.47072 -5.81234,-8.117875 -1.66324,-0.971999 -5.38738,-3.188495 -10.78011,-3.052466 z;
                 m 225.67573,75.263211 c -2.45041,0.06181 -6.52216,1.541002 -10.93628,1.954376 -4.4148,0.413438 -10.30844,1.13239 -10.0911,8.394285 0.13458,4.49681 5.30885,5.415398 8.08169,5.839365 5.53531,0.846346 4.79219,2.34759 12.62254,2.54299 4.0819,0.10186 7.75013,-0.847631 9.28712,-1.775319 1.88512,-1.137807 5.83435,-4.06359 5.79,-6.846016 -0.0461,-2.887336 -2.99381,-6.47072 -5.81234,-8.117875 -1.66324,-0.971999 -3.5489,-2.127835 -8.94163,-1.991806 z;
                 m 223.69583,75.828897 c -2.45041,0.06181 -5.65678,2.130253 -10.08775,2.873614 -5.77059,0.968102 -8.39925,2.900157 -8.18191,6.909361 0.24352,4.492227 3.17069,4.556035 5.96037,4.849416 4.01346,0.422081 5.92356,0.08485 10.14766,0.209537 4.0814,0.120477 8.07073,1.162372 11.05489,0.416713 2.61594,-0.653651 6.25861,-3.356484 6.21426,-6.13891 -0.0461,-2.887336 -2.42812,-6.117167 -5.6002,-7.340058 -1.79749,-0.69296 -4.11459,-1.915702 -9.50732,-1.779673 z;
                 m 224.1908,76.960268 c -2.45041,0.06181 -4.31327,1.84741 -10.51201,2.166507 -5.8435,0.30081 -6.98504,3.536553 -6.97983,6.626518 0.008,4.498817 3.73638,5.192431 5.18255,4.990838 3.99695,-0.557165 5.42859,-1.400075 9.65269,-1.275388 4.0814,0.120477 7.2222,2.364454 10.20636,1.618795 2.61594,-0.653651 5.83435,-3.215063 5.79,-5.997489 -0.0461,-2.887336 -2.07457,-5.127217 -5.24665,-6.350108 -1.79749,-0.69296 -2.70038,-1.915702 -8.09311,-1.779673 z;
                 m 223.34227,73.424734 c -2.45041,0.06181 -9.41851,1.664357 -13.05759,4.429249 -4.75092,3.609635 -5.92438,7.142797 -5.91917,10.232762 0.008,4.498817 4.58491,5.828827 6.03108,5.627234 3.99695,-0.557165 6.06498,-1.824338 10.28908,-1.699651 4.0814,0.120477 4.10531,1.924697 9.99423,1.901637 4.46942,-0.0175 9.3511,-4.416995 9.32553,-8.825916 -0.029,-5.008878 -4.19589,-8.945594 -7.36797,-10.168485 -1.79749,-0.69296 -3.90246,-1.632859 -9.29519,-1.49683 z;
                 m 223.34227,73.424734 c -2.45041,0.06181 -8.35785,1.876489 -11.99693,4.641381 -4.75092,3.609635 -6.0658,5.516451 -6.06059,8.606416 0.008,4.498817 3.6576,6.910226 5.11184,7.041448 7.39106,0.666921 6.06498,-1.824338 10.28908,-1.699651 4.0814,0.120477 4.671,1.21759 10.55992,1.19453 4.46942,-0.0175 8.36115,-3.780599 8.33558,-8.18952 -0.029,-5.008878 -3.77163,-8.874883 -6.94371,-10.097774 -1.79749,-0.69296 -3.90246,-1.632859 -9.29519,-1.49683 z;
                 m 222.77658,75.828897 c -2.45041,0.06181 -7.51658,0.169906 -11.1484,2.944325 -3.3367,2.548975 -4.44619,4.739188 -4.50495,7.828598 -0.0627,3.296736 1.90133,4.200331 3.34407,4.425153 4.27979,0.666921 5.99427,-0.622256 10.21837,-0.497569 4.0814,0.120477 5.23669,0.722615 10.13566,0.558134 4.46693,-0.149976 6.88768,-3.356417 6.85065,-6.0682 -0.0471,-3.453043 -1.86244,-5.763613 -5.03452,-6.986504 -1.79749,-0.69296 -4.46815,-2.339966 -9.86088,-2.203937 z;
                 m 223.27155,73.283313 c -6.63163,0.177334 -6.99422,1.007601 -12.27977,4.217117 -3.58904,2.179357 -6.34243,6.024303 -6.06058,9.10139 0.48332,5.276635 4.04853,5.415161 5.39468,5.980788 4.27979,1.798292 6.70138,3.973938 10.92548,4.098625 4.0814,0.120477 5.42483,-1.313776 9.92352,-3.260243 5.73973,-2.483428 7.45337,-5.689869 7.41634,-8.401652 -0.0471,-3.453043 -2.78168,-7.319248 -5.95376,-8.542139 -1.79749,-0.69296 -3.97339,-3.338086 -9.36591,-3.193886 z;
                 m 221.92805,72.010521 c -6.63163,0.177334 -5.58001,2.138972 -10.93627,5.489909 -3.55969,2.22698 -6.33718,3.395133 -6.34342,8.889258 -0.007,5.771618 4.33137,5.627293 5.67752,6.19292 4.27979,1.798292 6.70012,5.15991 10.92548,5.229996 7.26338,0.120477 7.14821,-1.880322 11.1256,-4.745167 5.24476,-3.77771 5.75632,-5.336316 5.71929,-8.048099 -0.0471,-3.453043 -2.78168,-7.177827 -5.95376,-8.400718 -1.79749,-0.69296 -4.82192,-4.752299 -10.21444,-4.608099 z;
                 m 223.05942,74.202552 c -5.42955,0.106623 -6.92351,2.916789 -8.88566,4.075695 -3.61539,2.135364 -7.39325,3.536564 -7.40408,8.04073 -0.008,3.324303 3.59407,5.063495 7.94026,6.263631 3.20145,0.884032 4.15568,3.058869 8.3799,3.179386 4.22282,0.120477 6.34431,-2.906837 8.65072,-4.179481 1.22588,-0.676421 5.98072,-1.940642 5.86072,-6.563175 -0.0984,-3.790627 -2.71097,-5.339349 -5.88305,-6.56224 -1.79749,-0.69296 -3.2654,-4.36046 -8.65881,-4.254546 z;
                 m 223.00515,73.566168 c -5.21166,-0.01348 -6.79247,3.104876 -8.64273,4.776758 -2.04385,1.846801 -7.47943,3.693027 -7.45078,7.061979 0.061,7.177762 5.05149,6.778358 8.30132,7.673175 1.80997,0.498364 3.99989,3.658364 7.83886,3.742651 5.75769,0.126414 6.95663,-2.567244 8.91324,-4.294698 1.57099,-1.387005 7.4496,-2.882811 7.40398,-7.110293 -0.0474,-4.386875 -5.99738,-5.548222 -7.51461,-6.761616 -1.74254,-1.393587 -3.30049,-5.073608 -8.84928,-5.087956 z" />
    </path>
    <path
       style="fill:#ee0e04;filter:url(#blur)"
       d="m 223,74.3 c 4.46932,0.09286 6.07834,3.098828 8.25,4.65 3.0314,2.165271 6.93513,3.024741 6.95,6.75 0.0162,4.04602 -3.94698,3.843632 -6.15,5.4 -2.84352,2.008863 -3.01266,5.085174 -9,5.05 -2.16445,-0.01272 -4.93014,-2.812544 -7.55,-3.85 -1.28282,-0.507993 -8.11781,0.15451 -8,-6.6 0.0645,-3.700638 6.45913,-5.636469 7.3,-6.4 1.8706,-1.698544 2.91386,-5.109834 8.2,-5 z"
       id="eye-right_red">
      <animate
         attributeName="d"
         dur="800ms"
         repeatCount="indefinite"
         keyTimes="0;
                   .0625;
                   .125;
                   .1875;
                   .25;
                   .3125;
                   .375;
                   .4375;
                   .5;
                   .5625;
                   .625;
                   .6875;
                   .75;
                   .8125;
                   .875;
                   .9375;
                   1"
         values="m 223,74.3 c 4.46932,0.09286 6.07834,3.098828 8.25,4.65 3.0314,2.165271 6.93513,3.024741 6.95,6.75 0.0162,4.04602 -3.94698,3.843632 -6.15,5.4 -2.84352,2.008863 -3.01266,5.085174 -9,5.05 -2.16445,-0.01272 -4.93014,-2.812544 -7.55,-3.85 -1.28282,-0.507993 -8.11781,0.15451 -8,-6.6 0.0645,-3.700638 6.45913,-5.636469 7.3,-6.4 1.8706,-1.698544 2.91386,-5.109834 8.2,-5 z;
                 m 222.92929,73.451472 c 4.46855,0.124485 6.57331,3.31096 8.74497,4.862132 3.0314,2.165271 7.57153,3.307584 7.5864,7.032843 0.0162,4.04602 -5.00764,4.197185 -7.21066,5.753553 -2.84352,2.008863 -4.92185,5.085174 -8.22218,5.191421 -2.16337,0.06964 -5.70796,-2.953965 -8.32782,-3.991421 -1.28282,-0.507993 -8.11781,-1.613257 -8,-7.024264 0.0806,-3.700323 6.17629,-5.919312 7.01716,-6.682843 1.8706,-1.698544 4.46949,-5.251255 8.41213,-5.141421 z;
                 m 223.82638,72.35291 c 4.25341,0.131556 6.25682,3.852584 8.32392,5.491865 2.88545,2.288264 7.20698,3.495462 7.22114,7.432325 0.0154,4.275843 -4.76654,4.435594 -6.86349,6.080368 -2.70661,2.12297 -4.68485,5.374763 -7.8263,5.486305 -4.06433,0.144311 -5.43313,-3.121758 -7.92685,-4.218143 -1.22106,-0.536848 -7.72695,-2.98235 -7.61482,-7.423258 0.0987,-3.910017 5.87892,-6.255543 6.6793,-7.062443 1.78053,-1.795025 4.25429,-5.903091 8.0071,-5.787019 z;
                 m 224.25064,74.469779 c 4.25341,0.108804 5.83256,3.186347 7.89966,4.542145 2.88545,1.89255 7.20573,2.89099 7.22114,6.147038 0.0154,3.25357 -4.76654,3.668537 -6.86349,5.028878 -2.70661,1.755839 -4.68485,4.445294 -7.8263,4.537544 -4.06433,0.119356 -5.43313,-2.581904 -7.92685,-3.488689 -1.22106,-0.444009 -7.72695,-2.466607 -7.61482,-6.139537 0.0987,-3.233851 5.87892,-5.173762 6.6793,-5.841122 1.78053,-1.484607 4.67855,-4.882257 8.43136,-4.786257 z;
                 m 223.57857,76.438143 c 4.5618,0.08697 6.04331,2.617649 8.26028,3.701377 3.09468,1.51277 7.51607,2.522983 7.53259,5.125635 0.0165,2.600672 -5.11213,2.932367 -7.36112,4.019726 -2.90286,1.403493 -5.02453,3.553251 -8.39375,3.62699 -4.35901,0.0954 -5.82706,-2.06379 -8.50159,-2.788609 -1.30959,-0.354909 -8.28719,-1.97163 -8.16693,-4.907509 0.10585,-2.584909 6.30517,-4.135535 7.16358,-4.668975 1.90964,-1.186689 5.44204,-4.185371 9.46694,-4.108635 z;
                 m 224.00283,78.842306 c 4.5618,-0.08716 5.63622,0.684229 7.90673,1.650767 1.8926,0.805664 4.97049,1.886587 4.98701,4.489239 0.0165,2.600672 -2.70927,3.230915 -5.02767,4.161148 -1.55936,0.625675 -4.81173,1.19238 -8.18162,1.222827 -2.73266,0.02469 -4.55427,-0.578866 -7.2288,-1.303685 -1.30959,-0.354909 -7.92861,-0.768685 -8.02551,-3.705428 -0.10628,-3.221305 4.86716,-3.625168 5.82008,-3.961868 2.75817,-0.974557 6.36427,-2.488315 9.74978,-2.553 z;
                 m 225.34633,79.337281 c 2.5819,-0.01645 5.14125,0.189254 7.41176,1.155792 1.8926,0.805664 4.12196,1.886587 4.13848,4.489239 0.0165,2.600672 -2.70927,3.230915 -5.02767,4.161148 -1.55936,0.625675 -2.90254,0.838827 -4.92893,0.586431 -2.71181,-0.337769 -5.47351,-1.144552 -9.70367,-1.445106 -1.35342,-0.09616 -8.71933,0.504504 -8.80333,-2.432636 -0.10628,-3.71628 4.81009,-4.420114 5.82008,-4.456843 7.35436,-0.26745 7.70722,-2.036452 11.09328,-2.058025 z;
                 m 224.70993,78.630175 c 2.57021,-0.245961 5.77765,0.684228 8.04816,1.650766 1.8926,0.805664 4.12196,2.098719 4.13848,4.701371 0.0165,2.600672 -1.64861,3.513758 -3.96701,4.443991 -1.55936,0.625675 -3.9632,0.555984 -5.98959,0.303588 -2.71181,-0.337769 -5.04925,-1.144552 -9.63296,-0.667289 -1.34954,0.140516 -9.35798,1.282328 -9.36901,-3.351874 -0.0107,-4.495601 3.75015,-5.040263 6.03221,-5.305372 3.7282,-0.433109 6.08087,-1.329344 10.73972,-1.775181 z;
                 m 224.70993,77.640226 c 2.58189,-0.01795 5.14125,0.684228 7.41176,1.650766 1.8926,0.805664 4.75836,3.088668 4.77488,5.69132 0.0165,2.600672 -1.43648,4.079443 -3.75488,5.009676 -1.55936,0.625675 -4.24752,0.887215 -6.90883,-0.262097 -3.01933,-1.30393 -5.63252,-1.844259 -12.53209,0.03982 -3.3365,0.911101 -6.45885,-0.267852 -6.46988,-4.200402 -0.0126,-4.495596 4.09192,-5.672625 6.38577,-5.800347 7.77848,-0.433109 7.99006,-2.107162 11.09327,-2.128736 z;
                 m 223.43714,78.347333 c 2.58187,-0.01975 6.20191,0.401385 8.47242,1.367923 1.8926,0.805664 4.29194,2.66757 4.42132,5.267056 0.0872,1.752144 -0.87079,3.72589 -3.18919,4.656123 -1.55936,0.625675 -4.60107,0.462954 -7.26238,-0.686361 -3.01933,-1.30393 -4.80417,-1.338747 -10.90575,0.464083 -4.75132,1.403869 -6.38653,-0.974958 -6.39917,-3.846848 -0.0173,-3.929888 4.46308,-5.440031 6.66862,-6.08319 1.48523,-0.433109 5.37431,-1.117212 8.19413,-1.138786 z;
                 m 223.79069,77.428094 c 3.50116,-0.01196 5.35339,0.542807 7.6239,1.509345 1.8926,0.805664 4.78691,3.445387 4.91629,6.044873 0.0872,1.752144 -0.87079,3.72589 -3.18919,4.656123 -1.55936,0.625675 -4.17777,1.0781 -6.62598,-0.474229 -2.94862,-1.869615 -5.89839,-2.399407 -11.54215,0.251951 -4.4842,2.106614 -7.0665,-1.053538 -6.39917,-3.846848 0.97265,-4.071309 4.68596,-4.922543 6.66862,-6.08319 1.34381,-0.786662 3.88936,-2.042115 8.54768,-2.058025 z;
                 m 221.38653,77.215962 c 3.50116,-0.01196 7.75755,0.754939 10.02806,1.721477 1.8926,0.805664 4.92833,1.748331 4.91629,6.044873 -0.005,1.754306 -0.63088,3.867311 -5.16909,4.797544 -1.64598,0.337389 -5.91937,-0.261076 -8.7473,-0.191386 -1.4275,0.03518 -3.62839,0.11056 -7.72377,0.534794 -4.58952,0.47542 -6.57577,-0.479984 -6.39917,-3.564006 0.19245,-3.360985 2.77677,-5.771071 4.75943,-6.931718 1.34381,-0.786662 3.67723,-2.395668 8.33555,-2.411578 z;
                 m 221.38653,76.650277 c 3.50116,-0.01196 7.82826,1.037781 10.09877,2.004319 1.8926,0.805664 5.35259,2.031174 5.34055,6.327716 -0.005,1.754306 -0.27732,4.432996 -4.81553,5.363229 -1.64598,0.337389 -6.7679,-0.119654 -9.59583,-0.04996 -1.4275,0.03518 -3.62839,-0.03086 -7.72377,0.393372 -4.58952,0.47542 -7.14146,-1.469933 -6.96486,-4.553955 0.19245,-3.360985 2.70606,-5.558939 4.68872,-6.719586 1.34381,-0.786662 4.31363,-2.749221 8.97195,-2.765131 z;
                 m 221.74008,77.145252 c 3.50116,-0.01196 7.05045,1.037781 9.32096,2.004319 1.8926,0.805664 5.25811,3.091168 5.19912,5.620609 -0.0574,2.460481 -2.04508,4.8731 -5.3105,5.151097 -1.67415,0.142526 -7.4043,2.35522 -10.23223,2.424914 -1.4275,0.03518 -3.26362,-1.268613 -6.66311,-1.86937 -1.34663,-0.237978 -5.37369,0.01499 -5.47993,-4.695376 -0.0759,-3.365635 2.91819,-4.639701 4.90085,-5.800348 1.34381,-0.786662 3.60652,-2.819931 8.26484,-2.835845 z;
                 m 221.24511,75.589617 c 3.50116,-0.01196 6.13121,3.088391 8.40172,4.054929 1.8926,0.805664 6.05317,1.464822 6.04764,5.196345 -0.004,2.461148 -1.40868,2.963911 -4.74481,5.080386 -1.41878,0.900088 -3.11552,4.459623 -8.11091,3.980549 -3.56466,-0.341862 -5.38494,-2.824248 -8.78443,-3.425005 -1.34663,-0.237978 -6.50918,-1.257853 -6.46988,-4.271112 0.0393,-3.012708 3.6253,-5.063965 5.60796,-6.224612 1.34381,-0.786662 3.39439,-4.375566 8.05271,-4.39148 z;
                 m 222.80074,75.448196 c 5.05694,-0.07372 5.84837,2.876259 8.11888,3.842797 1.8926,0.805664 5.05821,0.564021 5.48195,5.549898 0.17319,2.037843 -1.33797,3.529597 -5.59333,5.363229 -1.54305,0.664898 -2.77271,3.95997 -8.11091,3.697706 -2.66176,-0.130771 -4.32748,-2.04643 -6.66311,-2.647187 -1.32439,-0.340651 -7.20332,-0.833448 -7.17699,-5.04893 0.0281,-4.497716 3.6253,-5.488229 5.60796,-6.648876 1.34381,-0.786662 3.11214,-4.032491 8.33555,-4.108637 z;
                 m 223,74.3 c 4.46932,0.09286 6.07834,3.098828 8.25,4.65 3.0314,2.165271 6.93513,3.024741 6.95,6.75 0.0162,4.04602 -3.94698,3.843632 -6.15,5.4 -2.84352,2.008863 -3.01266,5.085174 -9,5.05 -2.16445,-0.01272 -4.93014,-2.812544 -7.55,-3.85 -1.28282,-0.507993 -8.11781,0.15451 -8,-6.6 0.0645,-3.700638 6.45913,-5.636469 7.3,-6.4 1.8706,-1.698544 2.91386,-5.109834 8.2,-5 z" />
    </path>
    <path
       id="eye-right_black"
       d="m 223.15,76.65 c 4.46871,0.118665 4.00816,2.427477 6.2,3.95 2.1814,1.515271 5.87536,3.428459 6,5.35 0.12618,1.945379 -4.3068,4.066275 -5.9,4.9 -2.20691,1.154883 -3.76266,2.785174 -6.4,2.75 -2.16429,-0.02886 -4.00674,-1.965786 -5.5,-2.65 -3.54449,-1.624089 -5.91781,-0.69549 -6.05,-5.1 -0.11103,-3.699533 4.87576,-4.484052 6,-5.9 1.69641,-2.136582 1.51386,-3.409834 5.65,-3.3 z"
       style="fill:#0e0502;filter:url(#blur)">
      <animate
         attributeName="d"
         dur="800ms"
         repeatCount="indefinite"
         keyTimes="0;
                   .0625;
                   .125;
                   .1875;
                   .25;
                   .3125;
                   .375;
                   .4375;
                   .5;
                   .5625;
                   .625;
                   .6875;
                   .8125;
                   .875;
                   .9375;
                   1"
         values="m 223.15,76.65 c 4.46871,0.118665 4.00816,2.427477 6.2,3.95 2.1814,1.515271 5.87536,3.428459 6,5.35 0.12618,1.945379 -4.3068,4.066275 -5.9,4.9 -2.20691,1.154883 -3.76266,2.785174 -6.4,2.75 -2.16429,-0.02886 -4.00674,-1.965786 -5.5,-2.65 -3.54449,-1.624089 -5.91781,-0.69549 -6.05,-5.1 -0.11103,-3.699533 4.87576,-4.484052 6,-5.9 1.69641,-2.136582 1.51386,-3.409834 5.65,-3.3 z;
                 m 223.64497,76.508579 c 2.6292,-0.01845 3.51319,2.568898 5.70503,4.091421 2.1814,1.515271 5.87536,2.650642 6,4.572183 0.12618,1.945379 -3.88254,4.136985 -5.47574,4.97071 -2.20691,1.154883 -4.18692,3.492281 -6.82426,3.457107 -2.16429,-0.02886 -4.33352,-2.168952 -5.85355,-2.791421 -3.19094,-1.30672 -5.77499,-2.394731 -5.69645,-5.312132 0.113,-4.197604 4.66363,-4.413342 5.78787,-5.82929 1.69641,-2.136582 3.82211,-3.140787 6.3571,-3.158578 z;
                 m 224.5076,75.937221 c 2.50261,-0.01951 3.34405,2.714817 5.43035,4.323822 2.07637,1.601342 5.59248,2.801205 5.71111,4.831894 0.12011,2.05588 -3.6956,4.371976 -5.21209,5.253058 -2.10066,1.220483 -3.98533,3.407807 -6.49569,3.370634 -2.06008,-0.03051 -4.12487,-2.009309 -5.57171,-2.667136 -3.03731,-1.380945 -5.49694,-3.167153 -5.42218,-5.613873 0.13552,-4.435271 4.43908,-4.664029 5.50919,-6.160407 1.61474,-2.257944 3.63809,-3.31919 6.05102,-3.337992 z;
                 m 224.86115,77.434247 c 2.50261,-0.01614 2.9905,2.245338 5.0768,3.576095 2.07637,1.324418 5.59248,2.316787 5.71111,3.996304 0.12011,1.700352 -3.6956,3.615921 -5.21209,4.344635 -2.10066,1.009422 -3.98533,2.818488 -6.49569,2.787744 -2.06008,-0.02523 -4.19118,-1.510567 -5.57171,-2.205902 -2.96957,-1.495689 -6.06708,-2.831502 -5.98787,-4.501634 0.0934,-1.96957 4.81277,-4.146182 6.14559,-5.095074 1.3319,-0.948236 3.92093,-2.886619 6.33386,-2.902168 z;
                 m 224.16263,79.09057 c 2.68407,-0.0094 4.06057,1.481383 5.4449,2.236268 1.26325,0.688855 6.09247,1.908396 6.05449,3.816567 -0.0272,1.364959 -4.10499,2.94683 -5.73143,3.529313 -2.25297,0.806859 -3.07219,2.182186 -6.54239,2.228323 -2.20934,0.02937 -4.97472,-2.02777 -6.54136,-2.244026 -3.53843,-0.48844 -6.3842,-1.836872 -6.42203,-3.174021 -0.0605,-2.140019 5.16172,-3.314162 6.59117,-4.072639 1.42847,-0.757952 3.60134,-2.307357 7.14665,-2.319785 z;
                 m 224.09192,80.716916 c 2.68407,-0.0094 4.06608,0.382285 5.51561,0.609922 2.98248,0.468377 6.09247,1.484132 6.05449,3.816567 -0.0222,1.365049 -3.21752,2.645599 -4.8829,3.105049 -1.89942,0.524016 -3.85001,0.626551 -7.32021,0.672688 -2.20934,0.02937 -4.40903,-0.684267 -5.97567,-0.900523 -3.53843,-0.48844 -7.0206,-1.200476 -7.05843,-2.537625 -0.0605,-2.140019 6.03585,-2.960609 8.57107,-3.365532 1.59686,-0.25505 1.55073,-1.388118 5.09604,-1.400546 z;
                 m 226.6375,80.716916 c 2.68407,-0.0094 2.864,0.311574 4.31353,0.539211 2.98248,0.468377 4.74897,1.554843 4.71099,3.887278 -0.0222,1.365049 -2.29828,2.504178 -3.96366,2.963628 -1.89942,0.524016 -0.17305,0.343708 -3.64325,0.389845 -2.20934,0.02937 -3.05148,-1.062434 -9.79405,-1.324787 -4.24447,-0.165152 -8.15197,0.143027 -8.1898,-1.194122 -0.0605,-2.140019 2.57102,-3.384873 8.99533,-3.365532 1.61709,0.0049 4.0256,-1.883093 7.57091,-1.895521 z;
                 m 224.6576,80.716916 c 2.68322,-0.06838 3.87512,0.203451 5.30348,0.539211 1.99253,0.468377 5.65668,1.554954 5.70094,3.887278 0.038,2.001445 -2.08615,2.71631 -3.75153,3.17576 -1.89942,0.524016 -2.5065,0.55584 -5.69386,-0.458683 -2.10545,-0.670156 -4.68222,-1.619978 -10.21831,-0.193416 -2.49493,0.642904 -5.6771,-0.776212 -5.71493,-2.113361 -0.0605,-2.140019 0.23829,-3.196603 6.66188,-3.294821 4.3041,-0.06581 4.44987,-1.458829 7.71233,-1.541968 z;
                 m 225.85968,80.151231 c 2.68401,0.02084 2.67304,0.769136 4.1014,1.104896 1.99253,0.468377 4.87886,1.554954 4.92312,3.887278 0.038,2.001445 -1.30833,2.71631 -2.97371,3.17576 -1.89942,0.524016 -3.00359,1.529026 -5.69386,-0.458683 -2.24687,-1.660105 -5.59931,-2.327085 -10.21831,-0.193416 -2.33894,1.080436 -6.34116,0.779423 -6.35133,-2.113361 -0.008,-2.14086 3.04178,-4.323345 5.67193,-4.355481 6.46365,-0.07897 3.60134,-1.100884 10.54076,-1.046993 z;
                 m 221.97059,80.221942 c 3.45623,-0.02528 6.49142,0.486293 7.91978,0.822053 1.99253,0.468377 4.59602,1.767086 4.64028,4.09941 0.038,2.001445 -0.95478,2.71631 -2.62016,3.17576 -1.89942,0.524016 -3.41195,0.185735 -6.47168,-1.16579 -2.31758,-1.023709 -4.82149,-1.125003 -9.44049,0.513691 -2.42815,0.86144 -5.98761,0.779423 -5.99778,-2.113361 -0.008,-2.14086 2.73611,-3.85489 5.31838,-4.355481 1.30177,-0.252356 3.38414,-0.952378 6.65167,-0.976282 z;
                 m 224.23333,79.302703 c 3.45623,-0.02528 4.35716,0.722448 5.72775,1.246317 1.7804,0.680509 4.6227,2.262246 4.56957,4.594385 -0.0327,1.43576 -0.95478,2.150625 -2.62016,2.610075 -1.89942,0.524016 -2.35129,0.609999 -5.41102,-0.741526 -2.31758,-1.023709 -5.88215,-0.983582 -10.50115,0.655112 -2.42815,0.86144 -5.56335,0.779423 -5.57352,-2.113361 -0.008,-2.14086 2.4756,-3.321322 4.89412,-4.355481 2.57456,-1.100884 5.64688,-1.871617 8.91441,-1.895521 z;
                 m 221.4049,79.373414 c 3.52694,0.04543 2.99719,1.362205 9.05115,1.670581 1.00783,0.05134 4.12773,1.767271 4.0746,4.09941 -0.0327,1.43576 -1.59118,2.787021 -4.03437,2.963628 -1.96525,0.142059 -5.81472,-0.609641 -9.15869,-0.529394 -1.53976,0.03695 -4.17156,0.477659 -6.11709,0.513691 -3.919,0.07258 -4.68462,0.353043 -4.7957,-2.537625 -0.0605,-1.575175 2.28284,-3.005896 4.54057,-4.355481 2.43314,-1.454437 3.17218,-1.866897 6.43953,-1.82481 z;
                 m 221.4049,79.373414 c 3.52694,0.04543 2.99719,1.362205 9.05115,1.670581 1.00783,0.05134 4.12773,1.767271 4.0746,4.09941 -0.0327,1.43576 -1.59118,2.787021 -4.03437,2.963628 -1.96525,0.142059 -6.0378,2.229087 -9.01727,2.157612 -3.53122,-0.08471 -3.95943,-1.643662 -6.25851,-1.749051 -3.91556,-0.179488 -4.68462,-0.07122 -4.7957,-2.961889 -0.0605,-1.575175 2.28284,-3.005896 4.54057,-4.355481 2.43314,-1.454437 3.17218,-1.866897 6.43953,-1.82481 z;
                 m 221.54632,77.181383 c 3.52694,0.04543 4.23288,3.907789 7.91978,4.216165 1.00563,0.08411 5.11768,1.413718 5.06455,3.745857 -0.0327,1.43576 -1.59118,2.787021 -4.03437,2.963628 -1.96525,0.142059 -6.0378,3.077615 -9.01727,3.00614 -3.53122,-0.08471 -3.95943,-2.49219 -6.25851,-2.597579 -3.91556,-0.179488 -4.68462,-0.07122 -4.7957,-2.961889 -0.0605,-1.575175 2.28284,-3.005896 4.54057,-4.355481 2.43314,-1.454437 3.3136,-4.058928 6.58095,-4.016841 z;
                 m 222.81911,77.181383 c 3.52694,0.04543 5.6471,3.200683 6.64699,3.65048 0.92031,0.414 5.54613,1.049609 5.55952,4.311542 0.0107,2.597077 -2.95318,2.71631 -5.59,3.812156 -1.8195,0.756174 -4.1307,2.997123 -7.10808,2.864719 -1.90488,-0.08471 -3.23431,-1.47617 -4.8443,-2.244026 -2.13915,-1.020229 -5.81599,-1.13188 -5.92707,-4.022549 -0.0605,-1.575175 2.42426,-3.005896 4.68199,-4.355481 2.43314,-1.454437 3.3136,-4.058928 6.58095,-4.016841 z;
                 m 223.15,76.65 c 4.46871,0.118665 4.00816,2.427477 6.2,3.95 2.1814,1.515271 5.87536,3.428459 6,5.35 0.12618,1.945379 -4.3068,4.066275 -5.9,4.9 -2.20691,1.154883 -3.76266,2.785174 -6.4,2.75 -2.16429,-0.02886 -4.00674,-1.965786 -5.5,-2.65 -3.54449,-1.624089 -5.91781,-0.69549 -6.05,-5.1 -0.11103,-3.699533 4.87576,-4.484052 6,-5.9 1.69641,-2.136582 1.51386,-3.409834 5.65,-3.3 z" />
    </path>
    <path
       id="eye-left_yellow"
       d="m 143.1965,80.518451 c -4.44897,0.171058 -5.09526,0.39039 -7.46606,0.99735 -4.61187,1.180707 -7.97865,3.069552 -7.88739,6.437389 0.13174,4.86196 4.66555,8.681911 7.91538,8.876728 1.87396,0.112338 5.48796,0.3614 7.42875,0.353339 4.14696,-0.01722 6.57996,-2.277862 8.75673,-3.718028 1.95233,-1.291671 7.80907,-1.941212 7.97674,-5.329381 0.21851,-4.415482 -4.10915,-5.599108 -7.87674,-6.101383 -2.21564,-0.295377 -5.03638,-1.662544 -8.84741,-1.516014 z"
       clip-path="url(#eye-clip)"
       clip-rule="evenodd"
       style="fill:#faee05;filter:url(#glow)">
      <animate
         repeatCount="indefinite"
         keyTimes="0; .0625; .25; .3125; .5; .5625; .75; .8125; 1"
         values="none; url(#glow); none; url(#glow); none; url(#glow); none; url(#glow); none"
         to="url(#glow)"
         from="none"
         dur="800ms"
         attributeName="filter" />
      <animate
         attributeName="d"
         dur="800ms"
         repeatCount="indefinite"
         keyTimes="0;
                   .0625;
                   .125;
                   .1875;
                   .25;
                   .3125;
                   .375;
                   .4375;
                   .5;
                   .5625;
                   .625;
                   .6875;
                   .75;
                   .8125;
                   .875;
                   .9375;
                   1"
         values="m 143.1965,80.518451 c -4.44897,0.171058 -5.09526,0.39039 -7.46606,0.99735 -4.61187,1.180707 -8.3322,3.140263 -8.24094,6.5081 0.13174,4.86196 4.52413,7.762672 7.77396,7.957489 1.87396,0.112338 6.05364,0.573532 7.99443,0.565471 4.14696,-0.01722 6.50925,-1.641466 8.68602,-3.081632 1.95233,-1.291671 7.03125,-2.294765 7.19892,-5.682934 0.21851,-4.415482 -3.33133,-5.245555 -7.09892,-5.74783 -2.21564,-0.295377 -5.03638,-1.662544 -8.84741,-1.516014 z;
                 m 143.40863,80.164898 c -4.44897,0.171058 -5.23888,-0.826182 -7.67819,-0.628996 -6.94532,0.561438 -10.66565,5.403005 -10.57439,8.770842 0.13174,4.86196 3.40271,9.773362 10.10741,10.432363 1.8028,0.177196 4.14305,1.122046 8.34798,-0.07093 3.99538,-1.133519 6.50925,-2.277862 8.68602,-3.718028 1.95233,-1.291671 7.03125,-3.779689 7.19892,-7.167858 0.21851,-4.415482 -3.68488,-7.154743 -7.45247,-7.657018 -2.21564,-0.295377 -4.82425,-0.106909 -8.63528,0.03962 z;
                 m 143.40863,80.589162 c -4.44897,0.171058 -5.23888,-0.189786 -7.67819,0.0074 -6.94532,0.561438 -10.02925,4.342345 -9.93799,7.710182 0.13174,4.86196 4.10307,7.652042 9.61243,9.513124 1.71621,0.579743 4.178,1.935032 8.20656,0.848309 4.00973,-1.081645 6.50925,-2.277862 8.68602,-3.718028 1.95233,-1.291671 7.295,-3.776904 7.19892,-7.167858 -0.18522,-6.536802 -4.10914,-7.579007 -7.87673,-8.081282 -2.21564,-0.295377 -4.39999,0.741619 -8.21102,0.888153 z;
                 m 143.40863,80.589162 c -4.44897,0.171058 -6.43507,0.11908 -8.88027,0.219532 -3.33908,0.137174 -7.41296,2.998842 -7.3217,6.366679 0.13174,4.86196 3.96165,6.639829 7.49111,7.533225 1.7561,0.444513 6.01735,0.793194 9.90362,0.706888 1.25383,-0.02784 5.37788,-0.934359 7.55465,-2.374525 1.95233,-1.291671 6.95555,-3.295915 6.91608,-6.177909 -0.0267,-1.949244 -3.47275,-5.457686 -7.24034,-5.959961 -2.21564,-0.295377 -4.61212,-0.460463 -8.42315,-0.313929 z;
                 m 143.47934,81.579112 c -4.44897,0.171058 -6.50578,0.472633 -8.95098,0.573085 -3.33908,0.137174 -8.54434,2.291735 -8.45308,5.659572 0.13174,4.86196 4.10308,6.356986 7.63254,7.250382 1.7561,0.444513 7.0073,0.863905 10.89357,0.777599 1.25383,-0.02784 6.22641,-0.722227 8.40318,-2.162393 1.95233,-1.291671 6.31915,-3.79089 6.27968,-6.672884 -0.0267,-1.949244 -1.28072,-5.174843 -6.67465,-5.959961 -2.21194,-0.321959 -5.31923,0.388066 -9.13026,0.5346 z;
                 m 143.69147,78.962817 c -4.44897,0.171058 -6.57443,0.150398 -9.02169,0.148821 -6.59177,-0.0042 -10.91482,0.984606 -10.92795,7.56876 -0.0186,9.317698 6.15369,10.741048 9.68315,11.634444 1.7561,0.444513 8.7858,-0.159681 11.17641,-0.495193 1.46881,-0.206142 7.61097,-1.842027 8.40318,-2.091682 6.30659,-1.987455 10.98479,-3.813901 9.17882,-10.561972 -0.61617,-2.302327 -3.7556,-6.094082 -9.14953,-6.8792 -2.21194,-0.321959 -5.53136,0.529488 -9.34239,0.676022 z;
                 m 143.69147,78.962817 c -4.4481,0.192454 -6.57443,-0.697167 -9.02169,-0.699707 -4.04619,-0.0042 -10.91482,0.984606 -10.92795,7.56876 -0.0186,9.317698 6.15369,11.589576 9.68315,12.482972 1.7561,0.444513 8.7858,-0.159681 11.17641,-0.495193 1.46881,-0.206142 7.61097,-1.842027 8.40318,-2.091682 6.30659,-1.987455 10.98479,-3.813901 9.17882,-10.561972 -0.61617,-2.302327 -3.7157,-7.227672 -9.14953,-7.657017 -4.96966,-0.39267 -5.95562,1.307305 -9.34239,1.453839 z;
                 m 143.69147,78.962817 c -4.4481,0.192454 -6.6276,0.511443 -8.95098,1.280192 -3.83406,1.268592 -9.0893,2.766435 -9.37231,9.336527 -0.13956,3.239736 4.73947,5.084193 8.26893,5.977589 1.7561,0.444513 8.43225,0.547426 10.82286,0.211914 1.46881,-0.206142 7.41287,-0.457715 8.19105,-0.748179 3.61958,-1.351059 7.44925,-2.258266 7.69389,-8.582073 0.0921,-2.381572 -1.0262,-4.854972 -7.16963,-6.313514 -3.76361,-0.893537 -6.09704,-1.30899 -9.48381,-1.162456 z;
                 m 143.05507,78.538553 c -4.4481,0.192454 -5.9912,0.935707 -8.31458,1.704456 -3.83406,1.268592 -8.31148,2.412882 -8.59449,8.982974 -0.13956,3.239736 3.39596,5.86201 6.92542,6.755406 1.7561,0.444513 8.00799,1.678797 10.3986,1.343285 1.46881,-0.206142 5.94165,-0.599136 9.181,-2.303814 3.419,-1.799215 6.66014,-4.450297 6.70394,-8.29923 0.0271,-2.383198 -0.0362,-5.137815 -6.17968,-6.596357 -3.76361,-0.893537 -6.73344,-1.733254 -10.12021,-1.58672 z;
                 m 141.71157,73.518095 c -5.79161,0.121743 -8.18718,3.854244 -10.29448,5.098568 -1.4299,0.844328 -7.67509,2.766436 -7.9581,9.336528 -0.13956,3.239736 3.88319,7.563763 8.0568,10.220229 3.2033,2.03888 6.78555,4.43601 11.60068,3.60603 3.45757,-0.59598 7.28515,-3.215434 10.5245,-4.920112 3.419,-1.799215 8.17066,-6.219788 8.04744,-10.066997 -0.18503,-5.777311 -6.06389,-7.964331 -8.79597,-9.212653 -2.91508,-1.331937 -7.79168,-4.132836 -11.18087,-4.061593 z;
                 m 143.47934,72.316013 c -5.79161,0.121743 -9.31855,4.632062 -10.36519,5.734965 -1.14308,1.204524 -7.32154,4.604913 -7.60455,11.175005 -0.13956,3.239736 1.83258,6.290971 6.00619,8.947437 3.2033,2.03888 6.74289,4.13164 11.60068,3.60603 5.50818,-0.59598 7.07302,-4.488226 10.31237,-6.192904 3.419,-1.799215 7.46355,-4.452021 7.34033,-8.29923 -0.18503,-5.777311 -4.72039,-6.482869 -7.45247,-9.000521 -2.35684,-2.17187 -6.44817,-6.042025 -9.83736,-5.970782 z;
                 m 143.47934,76.063679 c -5.79161,0.121743 -8.47002,3.35927 -9.51666,4.462173 -1.14308,1.204524 -7.25083,5.594862 -7.18029,8.912263 0.0689,3.242008 2.82253,3.391833 6.99614,6.048299 3.2033,2.03888 4.55086,3.848797 9.40865,3.323187 5.50818,-0.59598 6.57805,-4.205383 9.8174,-5.910061 3.419,-1.799215 4.69755,-2.187397 4.72403,-5.329381 0.0332,-3.938787 -5.6419,-6.386952 -6.95749,-7.374176 -1.51271,-1.135134 -3.90259,-4.203547 -7.29178,-4.132304 z;
                 m 143.47934,76.063679 c -5.79161,0.121743 -8.47002,3.35927 -9.51666,4.462173 -1.14308,1.204524 -6.4023,4.675623 -6.33176,7.993024 0.0689,3.242008 1.974,4.311072 6.14761,6.967538 3.2033,2.03888 4.55086,3.848797 9.40865,3.323187 5.50818,-0.59598 6.57805,-4.205383 9.8174,-5.910061 3.419,-1.799215 4.69755,-2.187397 4.72403,-5.329381 0.0332,-3.938787 -5.6419,-6.386952 -6.95749,-7.374176 -1.51271,-1.135134 -3.90259,-4.203547 -7.29178,-4.132304 z;
                 m 142.41868,73.871648 c -5.79161,0.121743 -10.37921,4.349219 -11.42585,5.452122 -1.14308,1.204524 -5.98663,3.048164 -5.90749,9.195106 0.0745,5.787468 1.54973,6.14955 5.72334,8.806016 3.2033,2.03888 5.32316,3.221308 10.32789,3.181768 6.524,-0.0515 8.98221,-2.791172 12.22156,-4.49585 3.419,-1.799215 5.9079,-5.298608 5.92611,-8.440651 0.0269,-4.645894 -5.28834,-7.871876 -6.60393,-8.8591 -1.51271,-1.135134 -6.87244,-4.910654 -10.26163,-4.839411 z;
                 m 140.50949,75.992969 c -5.79097,0.149136 -8.04576,2.581451 -9.0924,3.684354 -1.14308,1.204524 -6.18847,5.016217 -6.33175,8.841553 -0.21664,5.783892 1.54973,6.14955 5.72334,8.806016 3.2033,2.03888 5.25245,2.019226 10.25718,1.979686 6.524,-0.0515 8.2751,-2.791172 11.51445,-4.49585 3.419,-1.799215 6.68572,-4.662211 6.70393,-7.804254 0.0269,-4.645894 -7.97535,-6.316241 -9.29094,-7.303465 -1.51271,-1.135134 -4.11472,-3.846312 -9.48381,-3.70804 z;
                 m 140.5802,78.467843 c -3.17379,0.108448 -7.83363,1.945055 -8.88027,3.047958 -1.14308,1.204524 -4.42842,2.96369 -4.35185,6.790943 0.0662,3.309018 0.13552,3.745387 4.30913,6.401853 3.2033,2.03888 4.61599,2.373753 9.62078,2.40395 3.18393,0.01921 7.07302,-2.437619 10.31237,-4.142297 3.419,-1.799215 7.67567,-2.823733 7.69388,-5.965776 0.0269,-4.645894 -7.83393,-6.341449 -9.50307,-6.73778 -1.84009,-0.43692 -5.31925,-1.93149 -9.20097,-1.798851 z;
                 m 143.1965,80.518451 c -4.44897,0.171058 -5.09526,0.39039 -7.46606,0.99735 -4.61187,1.180707 -8.3322,3.140263 -8.24094,6.5081 0.13174,4.86196 4.52413,7.762672 7.77396,7.957489 1.87396,0.112338 6.05364,0.573532 7.99443,0.565471 4.14696,-0.01722 6.50925,-1.641466 8.68602,-3.081632 1.95233,-1.291671 7.03125,-2.294765 7.19892,-5.682934 0.21851,-4.415482 -3.33133,-5.245555 -7.09892,-5.74783 -2.21564,-0.295377 -5.03638,-1.662544 -8.84741,-1.516014 z" />
    </path>
    <path
       id="eye-left_red"
       d="m 143.25,82.2 c 4.46932,0.09286 5.89212,0.933235 8.5,1.5 3.9814,0.865271 6.00748,0.129874 5.8,4.2 -0.13488,2.645902 -3.21185,3.408524 -5.7,4.45 -1.69352,0.708863 -2.66266,2.53517 -8.65,2.5 -2.16445,-0.0127 -5.29487,0.201136 -7.2,-0.3 -0.74713,-0.19653 -6.5396,-1.513701 -6.8,-6.55 -0.16939,-3.276205 3.94431,-4.340204 6.3,-5.3 1.20873,-0.49248 2.46386,-0.609834 7.75,-0.5 z"
       style="fill:#ee0e04;filter:url(#blur)">
      <animate
         attributeName="d"
         dur="800ms"
         repeatCount="indefinite"
         keyTimes="0;
                   .0625;
                   .125;
                   .1875;
                   .25;
                   .3125;
                   .375;
                   .4375;
                   .5;
                   .5625;
                   .625;
                   .6875;
                   .75;
                   .8125;
                   .875;
                   .9375;
                   1"
         values="m 141.9065,81.917157 c 4.4696,0.07787 7.23562,1.216078 9.8435,1.782843 3.9814,0.865271 6.00748,0.129874 5.8,4.2 -0.13488,2.645902 -3.21185,3.408524 -5.7,4.45 -1.69352,0.708863 -2.66266,2.53517 -8.65,2.5 -2.16445,-0.0127 -5.29487,0.201136 -7.2,-0.3 -0.74713,-0.19653 -7.34636,-1.302187 -7.22426,-6.337868 0.0607,-2.502203 4.29786,-4.410915 6.72426,-5.512132 1.18853,-0.539411 4.16092,-0.821966 6.4065,-0.782843 z;
                 m 141.9065,83.119239 c 4.4696,0.07787 7.23562,0.014 9.8435,0.580761 3.9814,0.865271 5.25688,2.472753 5.23431,4.058579 -0.0269,1.893807 -2.90573,2.842838 -5.48786,4.237868 -1.61524,0.87265 -4.85469,2.393748 -8.29645,2.429289 -2.16437,0.02235 -5.29487,0.271847 -7.2,-0.229289 -0.74713,-0.19653 -7.51314,-0.955444 -7.22426,-5.984315 0.20212,-3.518592 3.54714,-4.072727 6.08786,-4.875736 1.25924,-0.39799 4.79732,-0.25628 7.0429,-0.217157 z;
                 m 142.18934,84.25061 c 4.4696,0.07787 6.95278,-1.117371 9.56066,-0.55061 3.9814,0.865271 4.90333,2.048489 4.88076,3.634315 -0.0269,1.893807 -2.48147,3.125681 -5.0636,4.520711 -1.61524,0.87265 -4.9254,1.969484 -8.36716,2.005025 -2.16437,0.02235 -5.29487,-0.011 -7.2,-0.512132 -0.74713,-0.19653 -7.2303,-1.945393 -7.29497,-6.196447 -0.0536,-3.523985 3.33501,-3.29491 6.15857,-3.320101 1.32058,-0.01178 5.08016,0.380116 7.32574,0.419239 z;
                 m 142.18934,83.472793 c 4.4696,0.07787 7.0942,-1.683057 9.70208,-1.116296 3.9814,0.865271 5.964,3.391992 5.94143,4.977818 -0.0269,1.893807 -3.18859,3.125681 -5.77072,4.520711 -1.61524,0.87265 -5.98606,2.181616 -9.42782,2.217157 -2.16437,0.02235 -6.42624,-0.011 -8.33137,-0.512132 -0.74713,-0.19653 -6.5107,-2.369865 -6.51715,-5.913604 -0.005,-2.953389 3.9007,-4.638413 6.72426,-4.663604 1.32058,-0.01178 5.43371,0.450827 7.67929,0.48995 z;
                 m 142.18934,82.907108 c 4.4696,0.07787 3.71139,-0.639253 9.70208,-0.550611 4.76132,0.07045 6.31755,1.553514 6.36569,5.048529 0.0261,1.893818 -3.47143,3.832787 -6.05356,5.227817 -1.61524,0.87265 -6.12748,1.403799 -9.56924,1.43934 -2.16437,0.02235 -7.06264,0.413264 -8.96777,-0.08787 -0.74713,-0.19653 -6.5814,-1.874891 -6.58785,-5.41863 -0.005,-2.953389 2.81683,-5.557651 7.43136,-5.582842 1.32061,-0.0072 5.43371,-0.114858 7.67929,-0.07573 z;
                 m 142.18934,82.907108 c 4.4696,0.07787 3.07499,-0.780674 9.06568,-0.692032 4.76132,0.07045 6.95395,1.694935 7.00209,5.18995 0.0261,1.893818 -2.41077,4.539894 -6.05356,5.227817 -1.80401,0.340679 -6.41032,-0.293257 -9.85208,-0.257716 -2.16437,0.02235 -5.85949,0.570103 -8.40209,0.548526 -2.75209,-0.02336 -6.22784,-0.814231 -6.23429,-4.35797 -0.005,-2.953389 2.25114,-5.628362 6.86567,-5.653553 1.32061,-0.0072 5.363,-0.04415 7.60858,-0.005 z;
                 m 142.18934,82.907108 c 4.4696,0.07787 3.00428,-1.134227 8.99497,-1.045585 4.76132,0.07045 7.34036,2.684992 7.28493,6.179899 -0.0446,2.813057 -2.59224,4.000531 -6.19498,4.874264 -2.86259,0.694232 -6.48103,-0.151836 -9.92279,-0.116295 -2.16437,0.02235 -5.9302,1.206499 -8.4728,1.184922 -2.75209,-0.02336 -6.51068,-1.80418 -6.51713,-5.347919 -0.005,-2.953389 2.039,-6.547601 6.65353,-6.572792 1.32061,-0.0072 5.92869,0.804378 8.17427,0.843528 z;
                 m 152.66923,81.720102 c 3.31449,0.656867 5.78473,1.624331 5.7293,5.119238 -0.0446,2.813057 -1.60229,4.990481 -5.20503,5.864214 -2.86259,0.694232 -6.62245,1.969484 -10.06421,2.005025 -2.16437,0.02235 -6.70802,-0.06629 -9.25062,-0.08787 -2.75209,-0.02336 -6.93494,-2.440576 -6.94139,-5.984315 -0.005,-2.953389 2.95824,-5.699073 7.85561,-7.138477 1.26703,-0.3724 4.9384,-0.85283 8.33151,-0.814255 3.39312,0.03857 5.99408,0.332748 9.54483,1.03644 z;
                 m 153.44705,81.083706 c 3.31449,0.656867 5.00691,2.260727 4.95148,5.755634 -0.0446,2.813057 -1.87021,4.900548 -5.06361,6.783453 -3.21614,1.896313 -7.40026,2.747302 -10.84202,2.782843 -2.16437,0.02235 -6.42518,-0.773397 -8.96778,-1.219242 -2.71083,-0.475343 -6.58139,-3.006261 -6.58784,-6.55 -0.005,-2.953389 2.74611,-6.40618 7.64348,-7.845584 1.26703,-0.3724 5.00911,-1.701358 8.40222,-1.662783 3.39312,0.03857 6.91332,1.251987 10.46407,1.955679 z;
                 m 150.33578,80.730153 c 3.31449,2.015877 6.84539,3.476322 6.78996,6.816294 -0.0467,2.813023 -3.35514,3.910598 -6.54854,5.793503 -3.21614,1.896313 -4.92538,3.878674 -8.36714,3.914215 -2.16437,0.02235 -6.08033,-1.45198 -8.47281,-2.421324 -2.56941,-1.041029 -5.73286,-3.006261 -5.73931,-5.701472 -0.007,-2.953385 5.07956,-7.325419 6.58282,-8.340559 1.09445,-0.739074 3.52419,-3.681257 6.9173,-3.642682 3.39312,0.03857 5.74501,1.701032 8.83772,3.582025 z;
                 m 149.69938,79.952336 c 3.11875,2.307162 6.06758,3.264189 6.01215,6.604161 -0.0467,2.813023 -2.09709,3.023841 -4.78078,5.581371 -2.65045,2.525862 -4.43055,6.012711 -7.87216,5.964825 -3.47571,-0.04836 -4.80754,-2.654061 -8.33139,-3.623405 -2.67301,-0.735293 -5.94712,-2.723414 -5.95144,-5.41863 -0.007,-4.367118 4.30174,-6.40618 5.805,-8.269848 0.82913,-1.027911 4.9384,-5.378313 8.33151,-5.339738 3.39312,0.03857 5.39146,3.468799 6.78711,4.501264 z;
                 m 149.69938,80.235179 c 3.11875,2.307162 6.98682,3.688453 6.93139,7.028425 -0.0467,2.813023 -3.01633,3.165262 -4.99291,4.732843 -2.86863,2.275042 -5.27908,5.800579 -8.72069,5.752693 -3.47571,-0.04836 -4.66612,-2.300508 -8.18997,-3.269852 -2.67301,-0.735293 -6.08854,-2.794125 -6.09286,-5.489341 -0.007,-4.367118 4.44316,-5.981916 5.94642,-7.845584 0.82913,-1.027911 4.9384,-4.388363 8.33151,-4.349788 3.39312,0.03857 5.39146,2.408139 6.78711,3.440604 z;
                 m 149.69938,80.235179 c 3.11875,2.307162 7.62322,4.183428 7.56779,7.5234 -0.0467,2.813023 -3.22847,3.306683 -5.20505,4.874264 -2.86863,2.275042 -5.70464,5.222242 -9.14495,5.116297 -6.16272,-0.189781 -5.79749,-1.169137 -8.33139,-2.633456 -2.40032,-1.387123 -6.37138,-3.571942 -6.3757,-6.267158 -0.007,-4.367118 4.86742,-5.840495 6.37068,-7.704163 0.82913,-1.027911 4.9384,-4.388363 8.33151,-4.349788 3.39312,0.03857 5.39146,2.408139 6.78711,3.440604 z;
                 m 148.85085,81.790814 c 3.11875,2.307162 6.63327,2.627793 6.57784,5.967765 -0.0467,2.813023 -5.4205,3.518815 -7.39708,5.086396 -2.86863,2.275042 -4.01202,3.482044 -7.44789,3.277819 -3.19287,-0.189781 -2.96907,-0.320608 -5.50297,-1.784927 -2.40032,-1.387123 -6.22995,-2.864836 -6.23427,-5.560052 -0.007,-4.367118 4.58457,-5.911205 6.79494,-7.633452 1.04174,-0.811689 2.25139,-2.196332 5.6445,-2.157757 3.39312,0.03857 6.16928,1.771743 7.56493,2.804208 z;
                 m 148.63872,83.063606 c 4.17941,0.822238 6.8454,1.355001 6.78997,4.694973 -0.0467,2.813023 -5.84476,2.387444 -7.82134,3.955025 -2.86863,2.275042 -3.79401,3.312452 -7.23576,3.34853 -2.13221,0.02235 -3.33769,-0.09655 -5.29084,-0.724267 -2.73744,-0.879784 -6.22995,-2.864836 -6.23427,-5.560052 -0.007,-4.367118 4.01888,-5.840494 6.22925,-7.562741 1.04174,-0.811689 2.39282,-1.772068 5.78593,-1.733493 3.39312,0.03857 6.07367,3.246909 7.77706,3.582025 z;
                 m 149.8408,82.922185 c 4.17941,0.822238 6.49185,2.415661 6.57784,4.129287 0.141,2.809875 -4.86442,3.591569 -7.11423,4.732843 -3.78787,1.921488 -6.48102,3.453873 -8.93282,3.277819 -2.12685,-0.152721 -3.32392,-0.141134 -5.29084,-0.724267 -3.44455,-1.021205 -6.22995,-2.864836 -6.23427,-5.560052 -0.007,-4.367118 2.95822,-5.062677 5.16859,-6.784924 1.04174,-0.811689 3.45348,-1.559935 6.84659,-1.52136 3.39312,0.03857 7.27575,2.115538 8.97914,2.450654 z;
                 m 141.9065,81.917157 c 4.4696,0.07787 7.23562,1.216078 9.8435,1.782843 3.9814,0.865271 6.00748,0.129874 5.8,4.2 -0.13488,2.645902 -3.21185,3.408524 -5.7,4.45 -1.69352,0.708863 -2.66266,2.53517 -8.65,2.5 -2.16445,-0.0127 -5.29487,0.201136 -7.2,-0.3 -0.74713,-0.19653 -7.34636,-1.302187 -7.22426,-6.337868 0.0607,-2.502203 4.29786,-4.410915 6.72426,-5.512132 1.18853,-0.539411 4.16092,-0.821966 6.4065,-0.782843 z" />
    </path>
    <path
       style="fill:#0e0502;filter:url(#blur)"
       d="m 143.35,84.75 c 4.46871,0.118665 3.5456,0.373634 6.2,0.65 2.8814,0.3 5.92536,0.528459 6.05,2.45 0.12618,1.945379 -4.1568,2.866275 -5.75,3.7 -2.20691,1.154883 -4.01266,1.585174 -6.65,1.55 -2.16429,-0.02886 -4.52249,-0.128225 -6.15,-0.35 -1.64449,-0.224089 -4.13411,0.515344 -6.95,-3.8 -0.27764,-0.425488 3.40183,-3.25 4.55,-3.95 0.69911,-0.426222 4.56386,-0.359834 8.7,-0.25 z"
       id="eye-left_black">
      <animate
         attributeName="d"
         dur="800ms"
         repeatCount="indefinite"
         keyTimes="0;
                   .0625;
                   .125;
                   .1875;
                   .25;
                   .3125;
                   .375;
                   .4375;
                   .5;
                   .5625;
                   .625;
                   .6875;
                   .75;
                   .8125;
                   .875;
                   .9375;
                   1"
         values="m 140.87513,83.76005 c 3.0551,-0.02218 6.02047,1.363584 8.67487,1.63995 2.8814,0.3 5.92536,0.528459 6.05,2.45 0.12618,1.945379 -4.1568,2.866275 -5.75,3.7 -2.20691,1.154883 -4.01266,1.585174 -6.65,1.55 -2.16429,-0.02886 -4.52249,-0.128225 -6.15,-0.35 -1.64449,-0.224089 -4.13411,0.515344 -6.95,-3.8 -0.27764,-0.425488 3.40183,-3.25 4.55,-3.95 0.69911,-0.426222 4.70499,-1.228915 6.22513,-1.23995 z;
                 m 141.2994,85.103553 c 1.57017,1.604165 7.24244,1.545572 8.32131,0.0136 0.90798,-1.289288 3.88246,-0.146299 5.20147,1.813604 0.50441,0.749488 -2.67187,2.995362 -4.97218,3.770711 -2.36035,0.795587 -4.01266,1.938727 -6.65,1.903553 -2.16429,-0.02886 -4.52249,0.366754 -6.15,0.144975 -1.64449,-0.224089 -7.54166,-1.723494 -7.44497,-3.305025 0.29049,-4.751435 3.54968,-2.38135 4.12573,-3.596447 0.97309,-2.052568 6.50528,-1.831352 7.56864,-0.744975 z;
                 m 140.73371,86.234924 c 1.80881,0.12721 7.45458,0.27278 9.73553,-1.117771 1.34644,-0.820841 2.60967,-0.146299 3.92868,1.813604 0.50441,0.749488 -2.24761,2.995362 -4.54792,3.770711 -2.36035,0.795587 -4.01599,1.55443 -6.65,1.691421 -2.16429,0.112561 -4.52249,-0.128221 -6.15,-0.35 -1.64449,-0.224089 -7.49036,-0.514426 -7.44497,-3.658578 0.0319,-2.209811 3.05471,-3.690771 4.40857,-3.667158 2.27121,0.03961 2.8652,1.246661 6.72011,1.517771 z;
                 m 140.73371,86.234924 c 1.80881,0.12721 7.596,-0.71717 9.16984,-1.329903 1.46949,-0.572103 6.01274,-0.142439 5.97929,2.237868 -0.0361,2.571102 -3.73253,2.78323 -6.03284,3.558579 -2.36035,0.795587 -3.80386,1.766562 -6.43787,1.903553 -2.16429,0.112561 -4.94675,0.154622 -6.57426,-0.06716 -1.64449,-0.224089 -7.21215,-2.706384 -7.23284,-4.153553 -0.0387,-2.704678 2.84258,-3.690771 5.11568,-3.667158 2.27143,0.0236 2.15809,1.246661 6.013,1.517774 z;
                 m 141.44082,85.669239 c 4.42951,-0.369163 5.19183,-1.187831 8.9577,-1.188482 1.57693,-2.73e-4 5.51777,0.281825 5.48432,2.662132 -0.0361,2.571102 -3.66182,3.136783 -5.96213,3.912132 -2.36035,0.795587 -5.57163,1.413009 -8.20564,1.55 -2.16429,0.112561 -5.15158,0.162877 -6.78639,0.0036 -1.57378,-0.153379 -5.28007,-1.079943 -5.32365,-4.224264 -0.0277,-1.997506 3.26675,-3.65612 5.11568,-3.667158 4.86214,-0.02903 3.66008,1.105239 6.72011,0.952089 z;
                 m 150.89349,84.127204 c 1.57693,-2.73e-4 5.15698,-0.354662 5.13077,3.015685 -0.0255,3.278308 -2.60116,3.631758 -5.46715,3.912132 -2.479,0.242514 -5.92518,-0.849733 -8.55919,-0.712746 -2.16429,0.112561 -6.00012,1.435669 -7.63493,1.276392 -1.57378,-0.153379 -4.32695,-0.09064 -4.40441,-3.234314 -0.0631,-2.559442 2.9132,-4.080384 4.76213,-4.091422 4.86214,-0.02903 4.01363,0.963818 7.7584,0.702639 3.74477,-0.261179 4.64851,-0.867715 8.41438,-0.868366 z;
                 m 150.89349,83.844361 c 1.57693,-2.73e-4 5.15698,-0.07182 5.13077,3.298528 -0.0255,3.278308 -2.60116,4.056022 -5.46715,4.336396 -2.479,0.242514 -5.92518,-1.273997 -8.55919,-1.13701 -2.16429,0.112561 -6.00012,1.789222 -7.63493,1.629945 -1.57378,-0.153379 -4.6805,-0.444193 -4.75796,-3.587867 -0.0631,-2.559442 3.26675,-4.433937 5.11568,-4.444975 4.86214,-0.02903 4.01363,1.317371 7.7584,1.056192 3.74477,-0.261179 4.64851,-1.150558 8.41438,-1.151209 z;
                 m 152.09557,84.056493 c 1.56368,0.203987 3.9549,0.637047 3.92869,3.086396 -0.0351,3.278219 -2.60116,3.348915 -5.46715,3.629289 -2.479,0.242514 -6.13731,1.059456 -8.77132,1.196443 -2.16429,0.112561 -5.78799,0.162876 -7.4228,0.0036 -1.57378,-0.153379 -4.6805,-0.09064 -4.75796,-3.234314 -0.0631,-2.559442 3.35773,-3.659896 5.11568,-4.232843 4.86217,-1.584665 5.7107,-1.086792 8.60693,-1.489392 2.89623,-0.4026 6.06272,0.68792 8.76793,1.040821 z;
                 m 151.88344,83.844361 c 1.5147,0.438606 3.39439,1.556461 3.36301,3.51066 -0.0356,2.217548 -2.58067,2.759166 -4.19437,3.205025 -2.57813,0.712329 -4.72309,2.261537 -8.27634,2.398525 -2.1656,0.08349 -6.37581,0.145301 -7.91778,-0.420665 -1.57378,-0.577643 -5.17547,-0.656325 -5.25293,-3.799999 -0.0631,-2.559442 3.94437,-4.235586 5.68136,-4.869239 2.59943,-0.948269 4.29649,-2.288874 7.82912,-2.408631 3.53263,-0.119757 6.08403,1.607159 8.76793,2.384324 z;
                 m 150.25709,83.420097 c 1.3061,0.590814 4.2401,1.414976 4.28225,4.147057 0.0342,2.217548 -2.99119,2.942622 -4.54792,3.558577 -1.80031,0.71233 -3.73179,2.887376 -7.56923,2.964211 -3.8631,0.07735 -4.41206,-0.839688 -7.56423,-1.552036 -1.14861,-0.259569 -3.94778,-1.788845 -4.05085,-3.799999 -0.0985,-1.921929 2.95778,-3.636675 4.6207,-4.444975 2.3873,-1.160401 3.80151,-3.803651 6.90988,-3.964266 3.10837,-0.160615 6.29616,2.357157 7.9194,3.091431 z;
                 m 148.84288,82.64228 c 1.3061,0.873656 4.9472,1.980661 4.91864,4.005635 -0.0313,2.217591 -3.60721,3.545936 -5.04289,4.407105 -0.95178,0.570909 -3.87323,3.803351 -5.94289,3.812739 -2.52035,0.01143 -4.55348,-2.041769 -5.72575,-2.541985 -1.08309,-0.462162 -4.96333,-0.798067 -5.0408,-3.587867 -0.0711,-2.559535 3.69213,-4.174573 5.04497,-5.434925 1.39735,-1.301822 3.44795,-4.440047 5.91993,-4.529951 2.47197,-0.0899 4.38794,2.878706 5.86879,3.869249 z;
                 m 148.63075,83.066544 c 1.3061,0.873656 5.51288,1.556397 5.48432,3.581371 -0.0313,2.217591 -3.96076,3.545936 -5.39644,4.407105 -0.95178,0.570909 -4.50963,3.73264 -6.57929,3.742028 -2.52035,0.01143 -4.19992,-1.971058 -5.37219,-2.471274 -1.08309,-0.462162 -4.7512,-1.363752 -4.82867,-3.234314 -0.10595,-2.558329 4.1871,-4.528126 5.53994,-5.788478 1.39735,-1.301822 3.02369,-3.379387 5.49567,-3.469291 2.47197,-0.0899 4.17581,2.24231 5.65666,3.232853 z;
                 m 148.63075,83.773651 c 1.3061,0.873656 4.87648,1.485686 4.84792,3.51066 -0.0313,2.217591 -4.66786,3.192383 -6.10354,4.053552 -0.95178,0.570909 -3.16613,3.449797 -5.23579,3.459185 -2.52035,0.01143 -4.90703,-1.829637 -6.0793,-2.329853 -1.08309,-0.462162 -4.7512,-1.575884 -4.82867,-3.446446 -0.10595,-2.558329 4.32852,-4.669547 5.68136,-5.929899 1.39735,-1.301822 4.15508,-2.389442 6.13207,-2.408631 1.977,-0.01919 4.1051,2.100889 5.58595,3.091432 z;
                 m 148.63075,83.773651 c 1.3061,0.873656 4.87648,1.485686 4.84792,3.51066 -0.0313,2.217591 -4.66786,3.192383 -6.10354,4.053552 -0.95178,0.570909 -4.36821,3.309029 -6.43787,3.317764 -1.92007,0.0081 -3.70495,-1.688216 -4.87722,-2.188432 -1.08309,-0.462162 -4.7512,-1.575884 -4.82867,-3.446446 -0.10595,-2.558329 4.32852,-4.669547 5.68136,-5.929899 1.39735,-1.301822 2.67016,-2.389442 4.64715,-2.408631 1.977,-0.01919 5.59002,2.100889 7.07087,3.091432 z;
                 m 148.13578,84.551468 c 1.27589,0.142072 5.37145,0.142072 5.34289,2.732843 -0.0245,2.217677 -6.08207,2.485276 -7.51775,3.346445 -0.95178,0.570909 -3.16613,2.814054 -5.23579,2.822789 -1.92007,0.0081 -4.34135,-0.910398 -5.51362,-1.410614 -1.08309,-0.462162 -4.18551,-1.010199 -4.26298,-2.880761 -0.10595,-2.558329 2.98501,-4.528125 4.33785,-5.788477 1.39735,-1.301822 3.66011,-2.035889 5.6371,-2.055078 1.977,-0.01919 5.44164,3.03569 7.2123,3.232853 z;
                 m 148.13578,85.117153 c 1.27589,0.142072 5.58358,0.566335 5.55502,2.591422 -0.0313,2.217592 -5.23354,1.934705 -9.07338,4.336395 -0.94098,0.588547 -2.954,0.551312 -5.02366,0.560047 -1.92007,0.0081 -4.05851,0.07955 -5.23078,-0.420665 -1.08309,-0.462162 -3.26627,-1.434463 -3.34374,-3.305025 -0.10595,-2.558329 2.39012,-3.428597 4.05501,-4.232842 1.96304,-0.948268 4.01366,-1.682335 5.99065,-1.701524 1.977,-0.01919 5.30022,1.975029 7.07088,2.172192 z;
                 m 140.87513,83.76005 c 3.0551,-0.02218 6.02047,1.363584 8.67487,1.63995 2.8814,0.3 5.92536,0.528459 6.05,2.45 0.12618,1.945379 -4.1568,2.866275 -5.75,3.7 -2.20691,1.154883 -4.01266,1.585174 -6.65,1.55 -2.16429,-0.02886 -4.52249,-0.128225 -6.15,-0.35 -1.64449,-0.224089 -4.13411,0.515344 -6.95,-3.8 -0.27764,-0.425488 3.40183,-3.25 4.55,-3.95 0.69911,-0.426222 4.70499,-1.228915 6.22513,-1.23995 z" />
    </path>
  </g>
  <g
     id="layer2"
     style="display:inline;fill:none;fill-rule:evenodd;stroke:#261303;stroke-linecap:round">
    <path
       d="m 202.23421,96.802773 c -7.14174,-15.673114 0.98914,-32.576863 17.79467,-32.912097 13.60875,-0.271465 25.20733,9.735799 22.11288,28.867412 -10.44249,18.317702 -32.70642,16.805902 -39.90755,4.044685 z"
       id="path4027" />
    <path
       d="m 203.78467,71.927966 c -4.42668,0.112351 -15.99898,7.235488 -19.61672,22.245759 -5.72997,-0.337057 -9.10054,-0.06741 -13.14523,1.280818"
       id="path4165" />
    <path
       d="m 161.51772,77.38829 c 7.12314,0.314586 14.78557,8.246661 16.17874,16.785438"
       id="path4169" />
    <path
       d="m 138.66526,111.29623 c -1.146,1.01116 -2.0673,0.69659 -3.50541,0 -12.40369,-4.47163 -16.24614,-17.032617 -14.08897,-27.638677 1.84258,-6.71867 9.68477,-15.122627 21.97611,-15.437215 8.89831,-0.06741 26.89715,6.875965 19.61672,30.335134 -9.32524,2.089748 -15.27992,5.527728 -25.14445,13.751918 -3.88739,4.13457 -9.6623,11.70711 -15.70686,21.302 -2.83128,5.05586 -9.23536,17.05509 -15.77426,20.56049 -2.38187,1.30329 -6.786083,2.74139 -7.954548,5.52773 -0.831408,3.23575 0.426938,4.17951 7.213018,6.67373 3.23575,0.94376 12.94299,1.48305 19.41449,1.41564 l 34.51464,-3.16834 c 29.99807,-1.37069 57.09745,2.11223 73.61324,9.57243 4.90543,3.34352 7.93605,7.66726 8.08937,10.24652 -0.33706,2.67399 -5.12327,3.79751 -6.53891,7.55008 -1.10105,3.19081 -0.65165,9.07807 8.15677,11.59476"
       id="path4175" />
    <path
       d="m 232.8356,174.26326 c -1.61542,-1.89795 -2.56351,-4.08191 -3.22559,-6.26587"
       id="path4179" />
    <path
       d="m 248.14137,176.75269 c 3.21328,11.25771 0.0899,14.42604 -5.3255,15.10016"
       id="path4183" />
    <path
       d="m 124.64368,167.85439 c -1.43811,4.08962 0.35953,6.76361 2.56164,9.43759 2.24705,2.04481 3.61775,3.21327 6.87597,7.0782 1.59539,1.95493 2.78633,6.80856 5.86478,14.83052 0.85388,2.51669 1.64034,5.37044 2.62904,7.61748 1.07858,2.24705 3.43798,5.90973 6.60632,9.30277 7.61749,6.87596 22.11094,12.47111 38.08744,13.75193 16.45962,0.89881 26.59887,-0.45395 32.10078,-4.18621"
       id="path4188" />
    <path
       d="m 142.57511,206.68336 c -2.11761,2.87838 -1.54689,8.58425 -0.42104,10.96127 1.20351,2.54095 3.42125,5.43942 6.11731,7.57687 17.57191,11.72958 32.75071,12.84187 38.96379,13.0441 11.71835,1.11229 20.07909,0.22777 28.99987,-1.65975"
       id="path4233" />
    <path
       d="m 141.63136,208.03158 c -6.5052,0.21347 -10.58359,8.88708 -10.38136,15.80798 0.43817,6.62879 7.17932,16.29109 13.28005,22.38059"
       id="path4238" />
    <path
       d="m 147.29391,224.34514 c -0.95695,2.7484 -0.0856,6.16472 -0.0674,6.13444 4.89856,19.30214 13.43734,30.98678 21.16718,36.46957 11.16959,8.8866 28.50782,9.82606 37.68298,10.71842 6.94337,0.71906 13.56125,2.17964 21.11132,2.3594"
       id="path4247" />
    <path
       d="m 139.20455,269.88154 c -1.50553,9.29154 3.12339,7.25797 4.68509,10.88695 0.61794,1.19093 -4.35927,8.71854 -6.5389,13.07781 -0.67412,1.38193 -2.05605,5.83108 -0.30336,6.77484 3.1234,1.5617 5.60638,-3.44921 6.13444,-4.71879 2.47175,-4.58398 3.49415,-12.30258 7.61748,-13.21264 5.59516,-1.35946 15.9428,10.05554 25.48152,17.42585 2.9661,2.56163 7.98825,6.26926 9.70724,4.34804 2.2021,-2.42681 -2.43805,-6.40408 -4.81992,-8.99942 -7.58378,-6.13444 -22.21206,-16.38097 -20.76271,-19.11113 1.2134,-1.86505 13.41487,4.69632 20.05489,8.25789 2.24705,1.30329 9.8533,2.60657 10.41507,0.20223 1.11435,-2.81533 -1.50346,-4.63305 -8.06484,-6.75651 -5.72997,-1.66281 -9.87816,-3.38246 -11.2601,-4.37116 -1.77516,-1.25835 -7.07786,-6.92735 -10.57202,-8.69128 -2.41558,-1.44934 -7.86467,-3.10092 -13.61711,-2.52793"
       id="path4254" />
    <path
       d="m 150.96783,242.34399 -6.33666,3.87616 c -5.43786,4.46038 -19.20101,13.2014 -19.11113,22.68393 0.12358,3.41551 7.96577,6.32544 13.38115,4.78622"
       id="path4252" />
    <path
       d="m 170.3197,268.69508 -2.37675,1.81192"
       id="path4258" />
    <path
       d="m 121.84612,252.52311 c 1.44934,-1.33699 4.51656,-4.35927 18.9426,-3.33686"
       id="path4264" />
    <path
       d="m 130.44107,252.4894 -15.20128,0.20224 c -4.80868,0.47188 -10.22406,3.23575 -10.17912,5.69627 0.12359,2.7751 8.63989,2.17963 11.19029,1.51675"
       id="path4266" />
    <path
       d="m 125.52003,258.45531 c -2.70769,0.25841 -8.4826,1.05612 -9.4376,1.48306 -2.97733,1.46057 -4.16827,2.6178 -3.97727,4.38173 -0.0562,3.42675 9.0219,2.97734 13.98787,0.87636"
       id="path4268" />
    <path
       d="m 175.30787,177.3557 c 9.64318,-0.66168 21.44353,1.60905 30.00812,4.11571"
       id="path4277" />
    <path
       d="m 283.1953,258.3205 c -5.3255,0.31458 -10.17912,3.25821 -11.12288,5.59514 -1.9774,6.87596 -7.4602,15.10015 -15.84168,16.38097 -8.53878,-0.40447 -18.83025,-1.88752 -20.96495,-1.82011 -4.02221,-0.0674 -9.28844,1.17321 -9.63983,3.10093 -0.15729,3.25822 2.80807,3.3127 6.40409,3.23575 5.55021,-0.0449 13.86428,-0.96623 14.22381,0.47188 1.4436,3.47206 -12.58914,2.92839 -32.69454,14.69568 -2.94363,1.99987 -9.93195,6.35914 -9.03313,8.62866 1.43811,2.80881 8.68178,-0.30641 12.80817,-1.88752 19.4842,-9.47372 32.78116,-15.09534 34.9191,-12.60594 2.38187,2.71893 -9.25782,10.02183 -14.49344,15.03275 -2.1347,1.64034 -3.37599,3.17647 -2.72847,5.4685 1.14525,3.18403 6.8371,-0.78233 9.80667,-3.31133 5.12326,-5.66256 12.20146,-10.92065 14.35862,-11.72959 2.36977,-0.76673 9.83835,-2.02578 12.26888,-2.83128 1.32576,-0.49435 4.80868,-3.9548 7.21302,-5.9322 6.58385,-1.82011 23.2794,-5.52774 31.68336,-11.52735 2.28315,-1.72139 4.88022,-5.87917 4.77803,-9.81415 -0.20083,-5.46296 -0.82447,-9.43131 -9.10054,-17.72919 -2.42681,-3.9548 -4.37357,-6.99377 -9.56425,-11.95974"
       id="path4279" />
    <path
       d="m 268.29738,247.19761 c -3.55034,7.4602 -0.2247,10.8083 3.70763,16.5158"
       id="path4281" />
    <path
       d="m 268.09514,240.52388 c -4.83115,3.79751 -4.40421,11.033 -1.28081,13.21264"
       id="path4283" />
    <path
       d="m 219.03013,225.39831 c 0.3202,-2.32388 3.77223,-1.36461 6.53039,2.52635 3.08039,4.34554 3.36343,14.02684 -3.05069,13.20378 1.68576,-0.0183 3.90326,-4.13618 2.38335,-9.15208 -1.34,-4.42218 -4.03823,-6.06552 -5.86305,-6.57805 z"
       id="path4429" />
    <path
       d="m 223.5585,240.41343 c -0.74678,0 -2.55016,-0.12317 -2.57401,0.76268 -0.0238,0.88585 6.2126,0.84212 4.57603,-0.52434"
       id="path4433" />
    <path
       d="m 225.32218,234.64572 -2.09735,0.47667"
       id="path4436" />
    <path
       d="m 225.08385,236.02806 c -0.30158,-0.18214 -3.83634,-1.85871 -6.24439,-2.43101 -2.87591,2.82824 -8.27818,13.75989 -8.91374,16.6358 2.24574,2.47213 7.05016,4.70368 9.34274,5.10037 0.85801,-0.65145 1.95435,-2.49457 2.62169,-3.86102"
       id="path4438" />
    <path
       d="m 224.94085,237.17207 c -11.04287,-1.79545 -11.64665,12.47289 -3.09836,13.91879 7.80151,1.62068 11.16998,-9.62875 5.38637,-12.96544"
       id="path4440" />
    <path
       d="m 227.84854,233.16804 c 8.38817,0.65146 13.79245,-3.84381 14.82445,-4.95737 1.62068,-1.95435 -0.028,-8.32673 -2.473,-10.03575 -0.81273,-0.37691 -7.39772,0.0599 -13.56087,2.95245 -1.89995,0.89171 -5.53442,2.39448 -3.46195,3.93727"
       id="path4442" />
    <path
       d="m 235.18926,225.68431 c -0.36193,-1.45615 1.63724,-1.62224 2.57404,-2.09735 0.9368,-0.47511 2.62015,-1.50656 3.09834,-0.23834 0.47819,1.26822 -0.82793,2.09901 -1.81134,2.66937 -0.9834,0.57035 -3.49911,1.12247 -3.86104,-0.33368 z"
       id="path4444" />
    <path
       d="m 223.36783,225.30298 c 6.35561,-3.51147 9.9942,-4.40125 14.25246,-4.6237 0.76267,0.50845 1.23933,1.4459 1.23933,2.19268"
       id="path4446" />
    <path
       d="m 239.86063,225.44598 c 0.34956,0.93745 0.46079,1.92257 -0.23833,2.81236 -1.76368,1.25523 -6.91172,3.22546 -12.4411,3.33668"
       id="path4448" />
    <path
       d="m 243.28774,226.73826 c 0,0 5.03339,1.93245 7.55008,2.89868 7.08943,1.89876 7.62771,-3.69135 6.67373,-6.13443 -1.63802,-4.4438 -13.78564,-5.86479 -16.24615,-4.61768"
       id="path4450" />
    <path
       d="m 240.80758,218.33147 c 4.43011,-3.53092 8.27936,-7.30259 11.58649,-10.81943 5.55729,-5.90969 9.47075,-13.18169 12.06085,-18.65899 2.5901,-5.4773 4.8268,-15.81029 5.2918,-22.61653 0.465,-6.80624 0.21785,-12.47024 -1.65158,-17.62808 -1.65378,-4.56286 -2.58702,-5.60996 -4.09334,-8.3253 -4.81941,-8.68761 -4.55391,-17.73174 -5.85901,-23.07544 -1.55606,-6.08808 -5.52188,-7.63813 -7.97909,-10.8325 -1.8077,-2.35001 -5.33913,-11.079051 -7.95454,-13.684512"
       id="path4452" />
    <path
       d="m 252.39707,219.86893 c 0,0 4.91895,-4.12815 7.03089,-6.53039 7.10906,-8.08625 10.79892,-16.56765 14.20478,-25.76404 2.20398,-5.95112 3.4467,-12.30683 3.88487,-18.63782 0.39968,-5.77495 -0.19305,-13.39604 -1.16784,-17.32698 -3.15162,-12.70922 -12.2266,-11.17792 -12.2266,-11.17792"
       id="path4454" />
    <path
       d="m 310.45524,279.28932 c 2.56915,0.0471 5.4565,0.0236 7.95494,-0.49498 7.54951,-1.56688 14.47797,-5.3604 20.64752,-10.25304 6.16955,-4.89264 13.56467,-13.02255 16.47559,-17.74838 2.91092,-4.72583 3.41768,-9.66379 2.89913,-15.34422"
       id="path4458" />
    <path
       d="m 357.65,246.15 c 3.38333,0.0167 6.98333,-1.55833 9.55,-2.8 2.56667,-1.24167 7.79167,-5.75 10.6,-8.1 2.70833,-2.9 9.98333,-10.85 15.4,-15.9"
       id="path4460" />
    <path
       d="m 388.3,217.1 c 3.61463,2.61752 7.19171,2.86645 12.325,2.975"
       id="path4462" />
    <path
       d="m 275.75,149.5 c 4.93333,2.46667 10.91667,4.83333 14.8,5.75 0,0 2.21401,-2.4238 5.1,-0.65 3.14738,1.93446 3.68845,4.458 4.4,5.3 0.8164,0.96607 5.10517,2.92659 7.95,3.3 1.49308,0.19598 4.55661,-3.90181 7.35,-4.05 2.70774,-0.14364 5.29111,1.62878 7.3,3.45 3.60959,3.27238 5.76135,10.82119 8.95,15.95 5.92857,9.53585 11.21885,12.21136 15.05,19.65 1.64226,5.0153 1.64597,8.2665 3.9,12.8 0.83499,1.67941 4.2376,1.72071 5.55,5.75 0.36791,1.12953 -2.55,4.26667 -0.9,11.8"
       id="path4464" />
    <path
       d="m 346.9,198.6 c 10.45226,-8.65427 17.63274,-11.19518 25.05,-14.15 8.90915,-3.54915 10.7866,-3.13638 16.45,-3.95 2.53146,-3.82776 8.48535,-3.6788 7.2,-0.25 7.54537,1.42866 15.1643,4.63798 20.85,9.8 2.53333,2.3 4.53826,4.41699 6.25,7.05 3.85135,5.92419 4.89575,13.87531 3.65,19.45 -1.85171,8.28632 -9.77891,12.72881 -18.3,13.8 -6.59708,5.94211 -12.41934,11.36525 -19,17.5 -4.45344,4.15167 -8.77385,8.34231 -14.15,11.55 -2.48134,1.48049 -4.51667,2.13333 -8.3,2.5 -3.53247,0.34235 -7.11667,-0.31667 -10.6,-1"
       id="path4466" />
    <path
       d="m 353.90695,266.5614 c 3.91266,0.16499 10.51231,-0.51855 11.9501,-4.59619"
       id="path4468" />
    <path
       d="m 338.7,268.8 c 1.92869,2.55272 1.00524,5.70057 0.5,8.7 -2.41213,4.96667 -4.50606,8.0595 -6.38787,13.76863 -1.03039,3.25257 -0.57585,7.00012 1.78787,8.13137 1.40503,0.38192 4.33033,-2.80705 5.7,-5.07678 4.99908,-9.83727 6.07371,-13.16915 9.8,-15.72322 18.06592,0.28144 29.55575,15.37678 38.5,22.8 4.103,3.39301 10.53946,8.80128 13.9,5.3 3.22953,-4.20202 -0.68272,-8.26262 -4.1,-12.5 -7.79902,-7.77978 -24.68436,-21.88817 -21.7,-24.4 4.72397,-3.10232 20.54951,4.2959 30.4,8.3 3.11011,1.41421 7.1041,2.65165 8.8,0 2.35581,-3.94651 -4.34112,-7.17984 -8.1,-9.4 -8.86667,-4.79167 -29.75833,-8.40833 -32.3,-9.5"
       id="path4470" />
  </g>
</svg>
